<svg width="101.711792" height="1211.349609" viewBox="0 0 101.712 1211.35" fill="none" xmlns="http://www.w3.org/2000/svg" xmlns:xlink="http://www.w3.org/1999/xlink">
	<desc>
			Created with Pixso.
	</desc>
	<defs/>
	<g opacity="0.600000">
		<path id="Vector" d="M1.33 1040.65C1.33 1013.33 23.56 991.09 50.89 991.09C78.21 991.09 100.44 1013.33 100.44 1040.65C100.44 1067.97 78.21 1090.19 50.89 1090.19C23.56 1090.19 1.33 1067.97 1.33 1040.65ZM96.87 1040.65C96.87 1015.29 76.24 994.66 50.89 994.66C25.53 994.66 4.9 1015.29 4.9 1040.65C4.9 1066 25.53 1086.63 50.89 1086.63C76.24 1086.63 96.87 1066 96.87 1040.65Z" fill="#11F8A5" fill-opacity="1.000000" fill-rule="nonzero"/>
		<path id="Vector" d="M1.33 1161.79C1.33 1160.81 2.13 1160.01 3.11 1160.01C4.09 1160.01 4.89 1160.81 4.89 1161.79C4.89 1187.15 25.52 1207.78 50.87 1207.78C76.23 1207.78 96.86 1187.15 96.86 1161.79C96.86 1160.81 97.66 1160.01 98.64 1160.01C99.62 1160.01 100.42 1160.81 100.42 1161.79C100.42 1189.12 78.19 1211.35 50.86 1211.35C23.54 1211.35 1.31 1189.12 1.31 1161.79L1.33 1161.79Z" fill="#11F8A5" fill-opacity="1.000000" fill-rule="nonzero"/>
		<path id="Vector" d="M77.23 1039.44L98.93 1039.44L98.93 1043.73L77.23 1043.73L77.23 1039.44Z" fill="#11F8A5" fill-opacity="1.000000" fill-rule="evenodd"/>
		<path id="Vector" d="M2.5 1039.44L24.2 1039.44L24.2 1043.73L2.5 1043.73L2.5 1039.44Z" fill="#11F8A5" fill-opacity="1.000000" fill-rule="evenodd"/>
		<path id="Vector" d="M48.92 1068.43L53.19 1068.43L53.19 1090.13L48.92 1090.13L48.92 1068.43Z" fill="#11F8A5" fill-opacity="1.000000" fill-rule="evenodd"/>
		<path id="Vector" d="M48.92 993.04L53.19 993.04L53.19 1014.75L48.92 1014.75L48.92 993.04Z" fill="#11F8A5" fill-opacity="1.000000" fill-rule="evenodd"/>
		<path id="Vector" d="M76.57 1014.44C61.73 999.59 37.65 999.59 22.8 1014.44C7.96 1029.28 7.96 1053.36 22.8 1068.21C37.64 1083.05 61.72 1083.05 76.57 1068.21C91.41 1053.37 91.41 1029.29 76.57 1014.44ZM57.03 1017.66C61.36 1019 65.25 1021.51 68.26 1024.92L68.85 1025.57L67.99 1025.77C65.73 1026.3 63.32 1026.74 60.82 1027.06L60.37 1027.13L60.25 1026.68C59.83 1025.26 59.34 1023.89 58.78 1022.62C58.08 1021.03 57.3 1019.63 56.45 1018.46L55.51 1017.18L57.03 1017.65L57.03 1017.66ZM39.66 1040.14L39.68 1039.6C39.79 1036.31 40.15 1033.16 40.77 1030.27L40.87 1029.81L41.34 1029.85C46.81 1030.32 52.66 1030.31 58.11 1029.8L58.57 1029.76L58.68 1030.22C59.31 1033.14 59.68 1036.3 59.77 1039.6L59.77 1040.14L39.67 1040.14L39.66 1040.14ZM59.77 1042.55L59.77 1043.09C59.66 1046.39 59.29 1049.55 58.66 1052.47L58.55 1052.93L58.08 1052.89C52.64 1052.38 46.79 1052.37 41.32 1052.84L40.85 1052.88L40.75 1052.42C40.13 1049.53 39.77 1046.39 39.66 1043.09L39.64 1042.55L59.75 1042.55L59.77 1042.55ZM49.72 1016.75C52.74 1016.75 55.83 1020.59 57.75 1026.78L57.95 1027.41L57.29 1027.46C54.73 1027.68 52.09 1027.79 49.43 1027.79C46.97 1027.79 44.51 1027.69 42.12 1027.5L41.46 1027.44L41.66 1026.81C43.59 1020.6 46.68 1016.74 49.72 1016.74L49.72 1016.75ZM31.06 1025.04C34.1 1021.57 38.02 1019.02 42.4 1017.67L43.93 1017.2L42.98 1018.49C42.13 1019.65 41.34 1021.06 40.65 1022.64C40.1 1023.89 39.6 1025.28 39.16 1026.78L39.04 1027.21L38.59 1027.16C36.07 1026.85 33.63 1026.43 31.34 1025.9L30.48 1025.69L31.06 1025.04ZM24.98 1039.57C25.28 1035.52 26.58 1031.56 28.75 1028.12L28.96 1027.79L29.34 1027.89C32 1028.56 34.87 1029.1 37.89 1029.49L38.45 1029.56L38.34 1030.12C37.71 1033.14 37.36 1036.34 37.27 1039.63L37.27 1040.14L24.95 1040.14L25 1039.57L24.98 1039.57ZM28.96 1054.9L28.75 1054.56C26.58 1051.14 25.28 1047.17 24.98 1043.11L24.94 1042.55L37.25 1042.55L37.25 1043.06C37.35 1046.35 37.71 1049.56 38.33 1052.56L38.44 1053.13L37.88 1053.19C34.87 1053.59 31.99 1054.13 29.33 1054.8L28.95 1054.9L28.96 1054.9ZM42.4 1065.04C38.02 1063.68 34.1 1061.13 31.06 1057.67L30.48 1057L31.34 1056.8C33.63 1056.28 36.07 1055.86 38.59 1055.54L39.04 1055.49L39.16 1055.92C39.6 1057.42 40.1 1058.81 40.65 1060.06C41.35 1061.65 42.13 1063.05 42.98 1064.22L43.93 1065.51L42.4 1065.05L42.4 1065.04ZM49.72 1065.93C46.68 1065.93 43.59 1062.07 41.66 1055.87L41.46 1055.23L42.12 1055.18C47.08 1054.78 52.37 1054.79 57.29 1055.22L57.95 1055.27L57.75 1055.9C55.82 1062.07 52.73 1065.93 49.72 1065.93L49.72 1065.93ZM68.26 1057.77C65.25 1061.18 61.35 1063.68 57.03 1065.04L55.51 1065.5L56.45 1064.22C57.3 1063.06 58.08 1061.65 58.78 1060.06C59.33 1058.78 59.83 1057.42 60.25 1055.99L60.37 1055.55L60.82 1055.62C63.32 1055.93 65.73 1056.38 67.99 1056.91L68.85 1057.11L68.26 1057.77ZM74.44 1043.11C74.14 1047.22 72.82 1051.22 70.6 1054.69L70.39 1055.02L70.01 1054.93C67.38 1054.23 64.52 1053.68 61.52 1053.27L60.96 1053.19L61.07 1052.65C61.7 1049.63 62.06 1046.41 62.15 1043.06L62.15 1042.56L74.47 1042.56L74.43 1043.13L74.44 1043.11ZM62.17 1040.14L62.17 1039.63C62.07 1036.29 61.71 1033.06 61.08 1030.05L60.97 1029.5L61.53 1029.43C64.53 1029.02 67.38 1028.47 70.02 1027.77L70.4 1027.68L70.61 1028C72.83 1031.48 74.17 1035.48 74.45 1039.59L74.49 1040.15L62.19 1040.15L62.17 1040.14Z" fill="#11F8A5" fill-opacity="1.000000" fill-rule="nonzero"/>
		<path id="Vector" d="" fill="#11F8A5" fill-opacity="1.000000" fill-rule="nonzero"/>
		<path id="Vector" d="M1.27 1162.54L1.27 1042.94C1.27 1041.96 2.07 1041.17 3.05 1041.17C4.03 1041.17 4.83 1041.97 4.83 1042.94L4.83 1162.54C4.83 1163.53 4.03 1164.31 3.05 1164.31C2.07 1164.31 1.27 1163.52 1.27 1162.54Z" fill="#11F8A5" fill-opacity="1.000000" fill-rule="nonzero"/>
		<path id="Vector" d="" fill="#11F8A5" fill-opacity="1.000000" fill-rule="nonzero"/>
		<path id="Vector" d="M96.82 1162.81L96.82 1043.22C96.82 1042.23 97.62 1041.43 98.6 1041.43C99.58 1041.43 100.38 1042.24 100.38 1043.22L100.38 1162.81C100.38 1163.8 99.58 1164.59 98.6 1164.59C97.62 1164.59 96.82 1163.79 96.82 1162.81Z" fill="#11F8A5" fill-opacity="1.000000" fill-rule="nonzero"/>
		<path id="Vector" d="M16.4 953.63C-3.09 934.14 -3.09 902.44 16.4 882.95C35.89 863.46 67.6 863.46 87.09 882.95C106.58 902.44 106.58 934.14 87.09 953.63C67.6 973.12 35.89 973.12 16.4 953.63ZM84.73 885.3C66.54 867.11 36.95 867.11 18.76 885.3C0.57 903.49 0.57 933.09 18.76 951.27C36.95 969.46 66.55 969.46 84.73 951.27C102.93 933.08 102.93 903.49 84.73 885.3Z" fill="#FFFFFF" fill-opacity="1.000000" fill-rule="nonzero"/>
		<path id="Vector" d="M85.27 907.69C85.1 907.51 84.96 907.29 84.88 907.04C83.15 901.92 80.32 897.39 76.48 893.55C72.65 889.71 68.11 886.89 62.99 885.15C62.31 884.92 61.85 884.29 61.85 883.58L61.85 871.43C61.85 870.92 62.09 870.43 62.49 870.12C62.9 869.8 63.43 869.69 63.92 869.81C72.67 872 80.68 876.54 87.08 882.95C93.48 889.35 98.02 897.35 100.21 906.1C100.33 906.6 100.22 907.13 99.91 907.54C99.59 907.94 99.1 908.18 98.59 908.18L86.44 908.18C85.99 908.18 85.57 907.99 85.26 907.68L85.27 907.69ZM78.84 891.19C82.75 895.11 85.7 899.7 87.63 904.84L96.42 904.84C94.21 897.49 90.19 890.77 84.73 885.3C79.26 879.84 72.54 875.82 65.19 873.62L65.19 882.41C70.34 884.33 74.93 887.28 78.84 891.2L78.84 891.19Z" fill="#FFFFFF" fill-opacity="1.000000" fill-rule="nonzero"/>
		<path id="Vector" d="M16.4 953.63C10 947.24 5.46 939.23 3.27 930.48C3.14 929.98 3.26 929.45 3.57 929.05C3.89 928.64 4.37 928.41 4.88 928.41L17.03 928.41C17.75 928.41 18.38 928.86 18.61 929.54C20.34 934.66 23.16 939.2 27 943.04C30.84 946.87 35.38 949.7 40.5 951.43C41.17 951.66 41.63 952.29 41.63 953.01L41.63 965.16C41.63 965.67 41.39 966.15 40.99 966.47C40.58 966.79 40.06 966.9 39.56 966.77C30.81 964.58 22.8 960.04 16.4 953.64L16.4 953.63ZM7.07 931.74C9.28 939.09 13.29 945.81 18.76 951.28C24.22 956.74 30.94 960.76 38.3 962.97L38.3 954.18C33.15 952.26 28.56 949.31 24.65 945.39C20.73 941.48 17.78 936.89 15.86 931.74L7.07 931.74L7.07 931.74Z" fill="#FFFFFF" fill-opacity="1.000000" fill-rule="nonzero"/>
		<path id="Vector" d="M62.35 966.33C62.04 966.01 61.86 965.59 61.86 965.15L61.86 953C61.86 952.28 62.32 951.65 63 951.42C68.11 949.69 72.65 946.87 76.49 943.03C80.33 939.19 83.15 934.65 84.88 929.53C85.11 928.86 85.75 928.4 86.46 928.4L98.61 928.4C99.12 928.4 99.6 928.64 99.92 929.04C100.24 929.44 100.35 929.97 100.23 930.47C98.03 939.22 93.49 947.22 87.09 953.62C80.69 960.03 72.68 964.57 63.93 966.76C63.44 966.88 62.91 966.77 62.51 966.46C62.45 966.41 62.4 966.37 62.36 966.32L62.35 966.33ZM65.19 954.17L65.19 962.96C72.55 960.75 79.27 956.74 84.74 951.27C90.2 945.81 94.21 939.09 96.42 931.73L87.64 931.73C85.72 936.88 82.76 941.46 78.84 945.38C74.93 949.3 70.34 952.26 65.19 954.17Z" fill="#FFFFFF" fill-opacity="1.000000" fill-rule="nonzero"/>
		<path id="Vector" d="M3.7 907.69C3.66 907.64 3.61 907.59 3.57 907.54C3.25 907.13 3.14 906.6 3.27 906.1C5.46 897.35 10 889.34 16.4 882.95C22.8 876.55 30.81 872 39.56 869.81C40.06 869.69 40.58 869.8 40.99 870.12C41.39 870.43 41.63 870.92 41.63 871.43L41.63 883.58C41.63 884.29 41.17 884.93 40.49 885.15C35.37 886.88 30.84 889.71 27 893.55C23.16 897.38 20.34 901.92 18.61 907.04C18.38 907.72 17.74 908.18 17.03 908.18L4.88 908.18C4.43 908.18 4.01 908 3.7 907.69L3.7 907.69ZM38.29 873.62C30.94 875.83 24.22 879.84 18.75 885.31C13.29 890.77 9.28 897.49 7.06 904.85L15.85 904.85C17.77 899.7 20.72 895.12 24.64 891.2C28.56 887.28 33.15 884.33 38.29 882.41L38.29 873.62Z" fill="#FFFFFF" fill-opacity="1.000000" fill-rule="nonzero"/>
		<path id="Vector" d="M78.84 891.19C63.9 876.25 39.59 876.25 24.65 891.19C9.7 906.14 9.71 930.45 24.65 945.39C39.59 960.33 63.9 960.33 78.84 945.39C93.79 930.44 93.78 906.13 78.84 891.19Z" fill="#FFFFFF" fill-opacity="1.000000" fill-rule="nonzero"/>
		<path id="Vector" d="M38.04 932.15L65.57 931.97C66.73 931.96 67.67 932.89 67.68 934.05L67.69 935.03C67.7 936.19 66.76 937.14 65.6 937.15L38.07 937.33C36.91 937.34 35.97 936.4 35.96 935.25L35.95 934.26C35.95 933.1 36.88 932.16 38.04 932.15Z" fill="#191D0A" fill-opacity="1.000000" fill-rule="evenodd"/>
		<path id="Vector" d="M41.79 915.35C41.49 915.35 41.19 915.29 40.91 915.15L38.77 914.11C37.83 913.66 37.41 912.56 37.79 911.59L38.78 909.14C39.08 908.39 39.8 907.9 40.61 907.9C40.95 907.9 41.29 907.98 41.6 908.16L44.16 909.62C44.63 909.89 44.98 910.36 45.1 910.9C45.23 911.44 45.12 912.01 44.8 912.46L43.4 914.49C43.04 915.02 42.43 915.35 41.79 915.35L41.79 915.35Z" fill="#191D0A" fill-opacity="1.000000" fill-rule="nonzero"/>
		<path id="Vector" d="M61.61 915.22C60.96 915.22 60.35 914.91 59.98 914.38L58.59 912.43C58.27 911.98 58.15 911.41 58.27 910.87C58.38 910.33 58.72 909.85 59.2 909.57L61.84 908.02C62.14 907.85 62.48 907.75 62.83 907.75C63.63 907.74 64.36 908.22 64.67 908.97L65.67 911.35C66.07 912.31 65.65 913.42 64.73 913.89L62.48 915.01C62.21 915.14 61.91 915.22 61.61 915.22L61.61 915.22Z" fill="#191D0A" fill-opacity="1.000000" fill-rule="nonzero"/>
		<path id="Vector" d="M39.63 930.31C38.42 930.32 37.33 929.56 36.92 928.42L32.33 915.78C32.03 915.92 31.72 916.03 31.4 916.11C31.03 916.21 30.65 916.26 30.27 916.26C30.04 916.26 29.83 916.25 29.61 916.22C27.22 915.92 25.4 913.86 25.39 911.45C25.37 908.77 27.53 906.58 30.21 906.56C32.88 906.55 35.07 908.71 35.08 911.38C35.08 912 34.98 912.59 34.76 913.14C34.64 913.45 34.49 913.74 34.32 914.01L43.06 918.24L49.74 908.55C49.46 908.44 49.19 908.29 48.94 908.11C48.45 907.79 48.03 907.38 47.69 906.9C47.11 906.09 46.8 905.12 46.79 904.13C46.78 901.45 48.94 899.27 51.61 899.25C51.73 899.25 51.85 899.25 51.97 899.26C54.36 899.42 56.3 901.34 56.47 903.73C56.55 904.86 56.25 905.95 55.61 906.87C55.27 907.36 54.85 907.77 54.37 908.1C54.12 908.27 53.85 908.42 53.57 908.54L60.37 918.12L68.97 913.82C68.81 913.51 68.68 913.19 68.58 912.85C68.47 912.45 68.41 912.02 68.41 911.59C68.41 911.39 68.42 911.2 68.44 911.01C68.71 908.57 70.77 906.73 73.22 906.71C75.89 906.69 78.08 908.85 78.1 911.53C78.11 914.08 76.13 916.22 73.59 916.39L73.28 916.4C72.79 916.4 72.31 916.34 71.84 916.2C71.54 916.1 71.24 915.98 70.97 915.83L66.65 928.22C66.26 929.37 65.18 930.13 63.97 930.14L39.63 930.31L39.63 930.31Z" fill="#191D0A" fill-opacity="1.000000" fill-rule="nonzero"/>
		<path id="Vector" d="M51.34 840.59C38.64 840.59 25.95 835.76 16.28 826.09C-3.05 806.76 -3.05 775.32 16.28 755.99C25.65 746.62 38.1 741.47 51.34 741.47C64.58 741.47 77.03 746.62 86.39 755.99C105.72 775.32 105.72 806.76 86.39 826.09C76.73 835.75 64.04 840.59 51.34 840.59ZM18.88 823.49C36.78 841.38 65.89 841.38 83.78 823.49C101.67 805.6 101.67 776.48 83.78 758.59C75.11 749.92 63.59 745.15 51.33 745.15C39.07 745.15 27.54 749.93 18.87 758.59C0.98 776.48 0.98 805.6 18.87 823.49L18.88 823.49Z" fill="#DA7DB5" fill-opacity="1.000000" fill-rule="nonzero"/>
		<path id="Vector" d="M53.17 780.6L43.99 793.47L49.5 793.47L49.5 802.65L58.68 789.8L53.17 789.8L53.17 780.6Z" fill="#DA7DB5" fill-opacity="1.000000" fill-rule="nonzero"/>
		<path id="Vector" d="M51.33 773.45C41.27 773.45 33.11 781.61 33.11 791.67C33.11 801.72 41.27 809.86 51.33 809.86C61.38 809.86 69.54 801.7 69.54 791.67C69.54 781.63 61.38 773.45 51.33 773.45ZM51.33 807.61C42.5 807.61 35.34 800.45 35.34 791.63C35.34 782.8 42.5 775.64 51.33 775.64C60.15 775.64 67.31 782.8 67.31 791.63C67.31 800.45 60.15 807.61 51.33 807.61Z" fill="#DA7DB5" fill-opacity="1.000000" fill-rule="nonzero"/>
		<path id="Vector" d="M79.48 762.89C71.97 755.36 61.97 751.23 51.33 751.23C40.69 751.23 30.7 755.37 23.17 762.89C7.65 778.41 7.65 803.67 23.17 819.2C30.94 826.96 41.13 830.85 51.33 830.85C61.53 830.85 71.72 826.96 79.48 819.2C95 803.68 95 778.42 79.48 762.89ZM51.33 816.38C37.71 816.38 26.63 805.29 26.63 791.68C26.63 785.66 28.78 780.15 32.36 775.84L29.35 772.82C28.48 771.95 28.48 770.55 29.35 769.68C30.21 768.8 31.61 768.81 32.49 769.68L35.51 772.69C39.25 769.56 43.97 767.5 49.11 767.06L49.11 765.02L47.07 765.02C45.27 765.02 43.78 763.53 43.78 761.73L43.78 760.02C43.78 758.19 45.27 756.73 47.07 756.73L55.61 756.73C57.41 756.73 58.9 758.19 58.9 760.02L58.9 761.73C58.9 763.53 57.41 765.02 55.61 765.02L53.57 765.02L53.57 767.06C58.72 767.51 63.42 769.57 67.17 772.69L70.19 769.68C71.05 768.81 72.46 768.81 73.33 769.68C74.2 770.54 74.2 771.94 73.33 772.82L70.31 775.84C73.89 780.15 76.05 785.65 76.05 791.68C76.05 805.29 64.96 816.38 51.35 816.38L51.33 816.38Z" fill="#DA7DB5" fill-opacity="1.000000" fill-rule="nonzero"/>
		<path id="Vector" d="M50.33 722.31C23.01 722.31 0.78 700.07 0.78 672.76C0.78 645.45 23.02 623.21 50.33 623.21C77.64 623.21 99.87 645.45 99.87 672.76C99.87 700.07 77.64 722.31 50.33 722.31ZM50.33 626.52C24.83 626.52 4.08 647.26 4.08 672.76C4.08 698.26 24.83 719.01 50.33 719.01C75.83 719.01 96.57 698.26 96.57 672.76C96.57 647.26 75.83 626.52 50.33 626.52Z" fill="#FFFFFF" fill-opacity="1.000000" fill-rule="nonzero"/>
		<path id="Vector" d="M67.32 652.74L82.66 637.41L85.68 640.42L70.34 655.76L67.32 652.74Z" fill="#FFFFFF" fill-opacity="1.000000" fill-rule="evenodd"/>
		<path id="Vector" d="M14.52 705.54L29.86 690.21L32.88 693.22L17.54 708.56L14.52 705.54Z" fill="#FFFFFF" fill-opacity="1.000000" fill-rule="evenodd"/>
		<path id="Vector" d="M67.78 693.22L70.8 690.2L86.14 705.54L83.12 708.56L67.78 693.22Z" fill="#FFFFFF" fill-opacity="1.000000" fill-rule="evenodd"/>
		<path id="Vector" d="M14.53 639.96L17.55 636.94L32.88 652.27L29.86 655.29L14.53 639.96Z" fill="#FFFFFF" fill-opacity="1.000000" fill-rule="evenodd"/>
		<path id="Vector" d="M62.43 674.09C63.42 673.09 63.42 671.48 62.43 670.49L60.3 668.38C59.3 667.38 57.69 667.38 56.7 668.38L55.56 669.52L54.23 668.2C53.23 667.2 51.62 667.2 50.63 668.2L49.49 669.36L48.17 668.02C47.17 667.03 45.55 667.03 44.56 668.02L37.54 675.05C37.49 675.1 37.49 675.19 37.54 675.25C38.47 676.19 40 676.19 40.95 675.25L45.48 670.72C45.97 670.23 46.76 670.23 47.25 670.72L47.58 671.05C47.64 671.12 47.64 671.21 47.58 671.27L43.8 675.05C43.75 675.1 43.75 675.19 43.8 675.25C44.74 676.19 46.27 676.19 47.22 675.25L51.56 670.91C52.05 670.42 52.84 670.42 53.33 670.91L53.66 671.24C53.71 671.29 53.71 671.38 53.66 671.44L50.02 675.08C49.97 675.13 49.97 675.22 50.02 675.28C50.95 676.22 52.48 676.22 53.43 675.28L57.63 671.08C58.12 670.6 58.91 670.6 59.4 671.08L60.11 671.8C60.4 672.08 60.4 672.55 60.11 672.83L60 672.95C59.72 673.23 59.25 673.23 58.97 672.95L58.04 672.02C57.99 671.97 57.91 671.97 57.85 672.02L56.24 673.62C56.19 673.68 56.19 673.76 56.24 673.82L57.69 675.27C58.69 676.27 60.3 676.27 61.29 675.27L62.44 674.12L62.43 674.09Z" fill="#FFFFFF" fill-opacity="1.000000" fill-rule="nonzero"/>
		<path id="Vector" d="M50.33 634.76C29.35 634.76 12.34 651.77 12.34 672.75C12.34 693.73 29.35 710.74 50.33 710.74C71.31 710.74 88.32 693.73 88.32 672.75C88.32 651.77 71.31 634.76 50.33 634.76ZM51.88 646.49C57.98 646.84 63.52 649.28 67.81 653.09L62.32 658.57C59.46 656.15 55.85 654.58 51.88 654.24L51.88 646.49ZM48.79 646.49L48.79 654.24C44.82 654.57 41.21 656.15 38.35 658.57L32.86 653.09C37.15 649.28 42.69 646.84 48.79 646.49ZM30.68 655.27L36.16 660.76C33.74 663.62 32.17 667.23 31.83 671.2L24.08 671.2C24.43 665.1 26.87 659.56 30.68 655.27ZM24.08 674.29L31.83 674.29C32.16 678.26 33.74 681.87 36.16 684.73L30.68 690.22C26.87 685.93 24.43 680.39 24.08 674.29ZM48.79 699C42.69 698.65 37.15 696.21 32.86 692.4L38.35 686.92C41.21 689.34 44.82 690.91 48.79 691.25L48.79 699ZM34.36 672.74C34.36 663.92 41.51 656.77 50.33 656.77C59.15 656.77 66.3 663.92 66.3 672.74C66.3 681.56 59.15 688.71 50.33 688.71C41.51 688.71 34.36 681.56 34.36 672.74ZM51.88 699L51.88 691.25C55.85 690.92 59.46 689.34 62.32 686.92L67.81 692.4C63.52 696.21 57.98 698.65 51.88 699ZM69.99 690.22L64.51 684.73C66.93 681.87 68.5 678.26 68.84 674.29L76.59 674.29C76.24 680.39 73.8 685.93 69.99 690.22ZM68.84 671.2C68.51 667.23 66.93 663.62 64.51 660.76L69.99 655.27C73.8 659.56 76.24 665.1 76.59 671.2L68.84 671.2Z" fill="#FFFFFF" fill-opacity="1.000000" fill-rule="nonzero"/>
		<path id="Vector" d="M1.33 417.42C1.33 390.1 23.56 367.87 50.89 367.87C78.21 367.87 100.44 390.1 100.44 417.42C100.44 444.75 78.21 466.98 50.89 466.98C23.56 466.98 1.33 444.75 1.33 417.42ZM96.87 417.42C96.87 392.07 76.24 371.44 50.89 371.44C25.53 371.44 4.9 392.07 4.9 417.42C4.9 442.78 25.53 463.41 50.89 463.41C76.24 463.41 96.87 442.78 96.87 417.42Z" fill="#11F8A5" fill-opacity="1.000000" fill-rule="nonzero"/>
		<path id="Vector" d="M1.33 538.57C1.33 537.58 2.13 536.79 3.11 536.79C4.09 536.79 4.89 537.59 4.89 538.57C4.89 563.92 25.52 584.55 50.87 584.55C76.23 584.55 96.86 563.92 96.86 538.57C96.86 537.58 97.66 536.79 98.64 536.79C99.62 536.79 100.42 537.59 100.42 538.57C100.42 565.89 78.19 588.13 50.86 588.13C23.54 588.13 1.31 565.89 1.31 538.57L1.33 538.57Z" fill="#11F8A5" fill-opacity="1.000000" fill-rule="nonzero"/>
		<path id="Vector" d="M77.23 416.23L98.93 416.23L98.93 420.5L77.23 420.5L77.23 416.23Z" fill="#11F8A5" fill-opacity="1.000000" fill-rule="evenodd"/>
		<path id="Vector" d="M2.5 416.23L24.2 416.23L24.2 420.5L2.5 420.5L2.5 416.23Z" fill="#11F8A5" fill-opacity="1.000000" fill-rule="evenodd"/>
		<path id="Vector" d="M48.92 445.2L53.19 445.2L53.19 466.91L48.92 466.91L48.92 445.2Z" fill="#11F8A5" fill-opacity="1.000000" fill-rule="evenodd"/>
		<path id="Vector" d="M48.92 369.82L53.19 369.82L53.19 391.53L48.92 391.53L48.92 369.82Z" fill="#11F8A5" fill-opacity="1.000000" fill-rule="evenodd"/>
		<path id="Vector" d="M76.57 391.21C61.73 376.37 37.65 376.37 22.8 391.21C7.96 406.06 7.96 430.13 22.8 444.99C37.64 459.83 61.72 459.83 76.57 444.99C91.41 430.14 91.41 406.07 76.57 391.21ZM57.03 394.43C61.36 395.77 65.25 398.28 68.26 401.7L68.85 402.35L67.99 402.55C65.73 403.08 63.32 403.52 60.82 403.84L60.37 403.9L60.25 403.47C59.83 402.04 59.34 400.67 58.78 399.4C58.08 397.8 57.3 396.41 56.45 395.23L55.51 393.95L57.03 394.42L57.03 394.43ZM39.66 416.91L39.68 416.37C39.79 413.08 40.15 409.94 40.77 407.05L40.87 406.59L41.34 406.63C46.81 407.11 52.66 407.09 58.11 406.58L58.57 406.54L58.68 406.99C59.31 409.92 59.68 413.07 59.77 416.37L59.77 416.91L39.67 416.91L39.66 416.91ZM59.77 419.33L59.77 419.87C59.66 423.17 59.29 426.32 58.66 429.25L58.55 429.71L58.08 429.66C52.64 429.15 46.79 429.14 41.32 429.61L40.85 429.65L40.75 429.2C40.13 426.3 39.77 423.17 39.66 419.87L39.64 419.33L59.75 419.33L59.77 419.33ZM49.72 393.53C52.74 393.53 55.83 397.37 57.75 403.56L57.95 404.18L57.29 404.24C54.73 404.45 52.09 404.57 49.43 404.57C46.97 404.57 44.51 404.47 42.12 404.28L41.46 404.23L41.66 403.59C43.59 397.38 46.68 393.51 49.72 393.51L49.72 393.53ZM31.06 401.81C34.1 398.34 38.02 395.79 42.4 394.44L43.93 393.97L42.98 395.26C42.13 396.43 41.34 397.83 40.65 399.42C40.1 400.67 39.6 402.06 39.16 403.56L39.04 403.99L38.59 403.93C36.07 403.62 33.63 403.21 31.34 402.67L30.48 402.48L31.06 401.81ZM24.98 416.35C25.28 412.29 26.58 408.34 28.75 404.89L28.96 404.57L29.34 404.66C32 405.34 34.87 405.88 37.89 406.27L38.45 406.34L38.34 406.9C37.71 409.92 37.36 413.11 37.27 416.4L37.27 416.91L24.95 416.91L25 416.35L24.98 416.35ZM28.96 431.67L28.75 431.35C26.58 427.92 25.28 423.95 24.98 419.89L24.94 419.33L37.25 419.33L37.25 419.84C37.35 423.13 37.71 426.33 38.33 429.34L38.44 429.9L37.88 429.98C34.87 430.36 31.99 430.9 29.33 431.58L28.95 431.67L28.96 431.67ZM42.4 441.81C38.02 440.46 34.1 437.91 31.06 434.44L30.48 433.78L31.34 433.58C33.63 433.06 36.07 432.63 38.59 432.32L39.04 432.27L39.16 432.69C39.6 434.19 40.1 435.59 40.65 436.84C41.35 438.43 42.13 439.82 42.98 441L43.93 442.29L42.4 441.82L42.4 441.81ZM49.72 442.72C46.68 442.72 43.59 438.85 41.66 432.64L41.46 432.01L42.12 431.95C47.08 431.56 52.37 431.57 57.29 432L57.95 432.05L57.75 432.67C55.82 438.85 52.73 442.71 49.72 442.71L49.72 442.72ZM68.26 434.55C65.25 437.96 61.35 440.47 57.03 441.81L55.51 442.28L56.45 441C57.3 439.83 58.08 438.43 58.78 436.84C59.33 435.56 59.83 434.19 60.25 432.77L60.37 432.33L60.82 432.39C63.32 432.71 65.73 433.15 67.99 433.68L68.85 433.89L68.26 434.55ZM74.44 419.89C74.14 423.99 72.82 428 70.6 431.47L70.39 431.8L70.01 431.7C67.38 431.01 64.52 430.45 61.52 430.05L60.96 429.98L61.07 429.42C61.7 426.41 62.06 423.19 62.15 419.85L62.15 419.34L74.47 419.34L74.43 419.9L74.44 419.89ZM62.17 416.91L62.17 416.4C62.07 413.06 61.71 409.84 61.08 406.83L60.97 406.28L61.53 406.2C64.53 405.8 67.38 405.25 70.02 404.55L70.4 404.45L70.61 404.78C72.83 408.25 74.17 412.25 74.45 416.36L74.49 416.92L62.19 416.92L62.17 416.91Z" fill="#11F8A5" fill-opacity="1.000000" fill-rule="nonzero"/>
		<path id="Vector" d="" fill="#11F8A5" fill-opacity="1.000000" fill-rule="nonzero"/>
		<path id="Vector" d="M1.27 539.32L1.27 419.72C1.27 418.73 2.07 417.94 3.05 417.94C4.03 417.94 4.83 418.75 4.83 419.72L4.83 539.32C4.83 540.31 4.03 541.1 3.05 541.1C2.07 541.1 1.27 540.3 1.27 539.32Z" fill="#11F8A5" fill-opacity="1.000000" fill-rule="nonzero"/>
		<path id="Vector" d="" fill="#11F8A5" fill-opacity="1.000000" fill-rule="nonzero"/>
		<path id="Vector" d="M96.82 539.59L96.82 419.99C96.82 419.01 97.62 418.21 98.6 418.21C99.58 418.21 100.38 419.02 100.38 419.99L100.38 539.59C100.38 540.58 99.58 541.37 98.6 541.37C97.62 541.37 96.82 540.57 96.82 539.59Z" fill="#11F8A5" fill-opacity="1.000000" fill-rule="nonzero"/>
		<path id="Vector" d="M14.61 330.41C-4.88 310.92 -4.88 279.22 14.61 259.73C34.1 240.24 65.81 240.24 85.3 259.73C104.79 279.22 104.79 310.92 85.3 330.41C65.81 349.9 34.1 349.9 14.61 330.41ZM82.94 262.08C64.75 243.89 35.16 243.89 16.97 262.08C-1.22 280.27 -1.22 309.87 16.97 328.05C35.16 346.24 64.76 346.24 82.94 328.05C101.14 309.86 101.14 280.27 82.94 262.08Z" fill="#FFFFFF" fill-opacity="1.000000" fill-rule="nonzero"/>
		<path id="Vector" d="M83.48 284.47C83.31 284.29 83.17 284.07 83.09 283.82C81.36 278.7 78.53 274.17 74.69 270.33C70.86 266.49 66.32 263.67 61.2 261.93C60.52 261.7 60.07 261.07 60.07 260.36L60.07 248.21C60.07 247.7 60.3 247.21 60.71 246.9C61.11 246.58 61.64 246.47 62.13 246.59C70.88 248.78 78.89 253.32 85.29 259.73C91.69 266.13 96.23 274.13 98.42 282.88C98.54 283.38 98.43 283.91 98.12 284.32C97.8 284.72 97.31 284.96 96.8 284.96L84.66 284.96C84.2 284.96 83.78 284.77 83.47 284.46L83.48 284.47ZM77.05 267.97C80.96 271.89 83.92 276.48 85.84 281.62L94.63 281.62C92.42 274.27 88.4 267.55 82.94 262.08C77.47 256.62 70.75 252.6 63.4 250.4L63.4 259.19C68.55 261.1 73.14 264.06 77.05 267.98L77.05 267.97Z" fill="#FFFFFF" fill-opacity="1.000000" fill-rule="nonzero"/>
		<path id="Vector" d="M14.61 330.41C8.21 324.01 3.67 316.01 1.48 307.26C1.35 306.76 1.47 306.23 1.78 305.83C2.1 305.42 2.58 305.19 3.09 305.19L15.24 305.19C15.96 305.19 16.59 305.64 16.82 306.32C18.55 311.44 21.37 315.98 25.21 319.82C29.05 323.65 33.59 326.48 38.71 328.21C39.39 328.44 39.84 329.07 39.84 329.79L39.84 341.94C39.84 342.45 39.6 342.93 39.2 343.25C38.79 343.57 38.27 343.68 37.77 343.55C29.02 341.36 21.01 336.82 14.61 330.42L14.61 330.41ZM5.28 308.52C7.49 315.87 11.5 322.59 16.97 328.06C22.43 333.52 29.15 337.54 36.51 339.75L36.51 330.96C31.36 329.04 26.77 326.09 22.86 322.17C18.94 318.26 15.99 313.67 14.07 308.52L5.28 308.52L5.28 308.52Z" fill="#FFFFFF" fill-opacity="1.000000" fill-rule="nonzero"/>
		<path id="Vector" d="M60.56 343.11C60.25 342.79 60.07 342.37 60.07 341.93L60.07 329.78C60.07 329.06 60.53 328.43 61.21 328.2C66.33 326.47 70.86 323.65 74.7 319.81C78.54 315.97 81.36 311.43 83.09 306.31C83.32 305.63 83.96 305.18 84.67 305.18L96.82 305.18C97.33 305.18 97.82 305.42 98.13 305.82C98.45 306.22 98.56 306.75 98.44 307.25C96.24 316 91.7 324 85.3 330.4C78.9 336.81 70.89 341.35 62.14 343.54C61.65 343.66 61.12 343.55 60.72 343.24C60.67 343.19 60.61 343.14 60.57 343.1L60.56 343.11ZM63.41 330.95L63.41 339.74C70.76 337.53 77.48 333.52 82.95 328.05C88.41 322.59 92.42 315.87 94.64 308.51L85.85 308.51C83.93 313.66 80.98 318.24 77.06 322.16C73.14 326.08 68.55 329.03 63.41 330.95Z" fill="#FFFFFF" fill-opacity="1.000000" fill-rule="nonzero"/>
		<path id="Vector" d="M1.91 284.47C1.87 284.42 1.82 284.37 1.78 284.32C1.46 283.91 1.35 283.38 1.48 282.88C3.67 274.13 8.21 266.12 14.61 259.73C21.02 253.33 29.02 248.78 37.77 246.59C38.27 246.47 38.79 246.58 39.2 246.9C39.6 247.21 39.84 247.7 39.84 248.21L39.84 260.36C39.84 261.07 39.38 261.71 38.7 261.93C33.59 263.66 29.05 266.49 25.21 270.33C21.38 274.16 18.55 278.7 16.82 283.82C16.59 284.5 15.95 284.96 15.24 284.96L3.09 284.96C2.64 284.96 2.22 284.78 1.91 284.47L1.91 284.47ZM36.5 250.4C29.15 252.61 22.43 256.62 16.96 262.09C11.5 267.55 7.49 274.27 5.27 281.63L14.06 281.63C15.98 276.48 18.93 271.9 22.85 267.98C26.77 264.06 31.36 261.11 36.5 259.19L36.5 250.4Z" fill="#FFFFFF" fill-opacity="1.000000" fill-rule="nonzero"/>
		<path id="Vector" d="M77.05 267.97C62.11 253.03 37.8 253.03 22.86 267.97C7.91 282.92 7.92 307.23 22.86 322.17C37.8 337.11 62.11 337.11 77.05 322.17C92 307.22 91.99 282.91 77.05 267.97Z" fill="#FFFFFF" fill-opacity="1.000000" fill-rule="nonzero"/>
		<path id="Vector" d="M36.25 308.93L63.78 308.75C64.94 308.74 65.88 309.67 65.89 310.83L65.9 311.81C65.91 312.97 64.97 313.92 63.81 313.93L36.29 314.11C35.13 314.12 34.18 313.18 34.17 312.02L34.16 311.04C34.16 309.88 35.09 308.94 36.25 308.93Z" fill="#191D0A" fill-opacity="1.000000" fill-rule="evenodd"/>
		<path id="Vector" d="M40 292.13C39.7 292.13 39.4 292.06 39.12 291.93L36.98 290.89C36.04 290.44 35.62 289.33 36.01 288.37L36.99 285.92C37.29 285.17 38.01 284.68 38.82 284.68C39.16 284.68 39.5 284.76 39.81 284.94L42.37 286.4C42.85 286.67 43.19 287.14 43.31 287.68C43.44 288.22 43.33 288.79 43.02 289.24L41.61 291.27C41.25 291.8 40.64 292.13 40 292.13L40 292.13Z" fill="#191D0A" fill-opacity="1.000000" fill-rule="nonzero"/>
		<path id="Vector" d="M59.82 292C59.17 292 58.56 291.69 58.19 291.16L56.8 289.21C56.48 288.76 56.37 288.19 56.48 287.65C56.59 287.11 56.93 286.63 57.41 286.35L60.05 284.8C60.35 284.63 60.69 284.53 61.04 284.53C61.84 284.52 62.57 285 62.88 285.75L63.88 288.13C64.28 289.09 63.86 290.2 62.94 290.67L60.69 291.79C60.42 291.92 60.12 292 59.82 292L59.82 292Z" fill="#191D0A" fill-opacity="1.000000" fill-rule="nonzero"/>
		<path id="Vector" d="M37.84 307.09C36.63 307.1 35.54 306.34 35.13 305.2L30.54 292.56C30.25 292.7 29.93 292.81 29.62 292.89C29.24 292.99 28.86 293.04 28.48 293.04C28.26 293.04 28.04 293.03 27.82 293C25.43 292.7 23.62 290.64 23.6 288.23C23.58 285.55 25.74 283.36 28.42 283.34C31.09 283.32 33.28 285.49 33.29 288.16C33.29 288.78 33.19 289.37 32.97 289.92C32.85 290.23 32.71 290.51 32.54 290.79L41.27 295.02L47.95 285.33C47.67 285.22 47.4 285.07 47.15 284.89C46.66 284.57 46.24 284.16 45.9 283.68C45.32 282.87 45.01 281.9 45.01 280.91C44.99 278.23 47.15 276.04 49.82 276.03C49.94 276.03 50.06 276.03 50.18 276.04C52.57 276.2 54.51 278.12 54.68 280.51C54.76 281.64 54.47 282.73 53.82 283.65C53.48 284.14 53.06 284.55 52.58 284.87C52.33 285.05 52.06 285.2 51.78 285.32L58.58 294.9L67.18 290.6C67.02 290.29 66.89 289.97 66.79 289.63C66.68 289.23 66.62 288.8 66.62 288.37C66.62 288.17 66.63 287.98 66.65 287.79C66.92 285.35 68.98 283.51 71.43 283.49C74.1 283.47 76.29 285.63 76.31 288.31C76.33 290.86 74.34 293 71.8 293.17L71.5 293.18C71 293.18 70.52 293.12 70.05 292.97C69.75 292.88 69.45 292.76 69.18 292.61L64.86 305C64.47 306.15 63.39 306.91 62.18 306.92L37.84 307.09L37.84 307.09Z" fill="#191D0A" fill-opacity="1.000000" fill-rule="nonzero"/>
		<path id="Vector" d="M50.4 217.37C37.7 217.37 25.01 212.54 15.34 202.87C-3.99 183.54 -3.99 152.1 15.34 132.77C24.71 123.4 37.16 118.25 50.4 118.25C63.64 118.25 76.09 123.4 85.46 132.77C104.79 152.1 104.79 183.54 85.46 202.87C75.8 212.53 63.1 217.37 50.4 217.37ZM17.95 200.27C35.84 218.16 64.95 218.16 82.84 200.27C100.74 182.38 100.74 153.26 82.84 135.37C74.17 126.7 62.65 121.93 50.39 121.93C38.13 121.93 26.61 126.71 17.93 135.37C0.04 153.26 0.04 182.38 17.93 200.27L17.95 200.27Z" fill="#DA7DB5" fill-opacity="1.000000" fill-rule="nonzero"/>
		<path id="Vector" d="M52.23 157.38L43.05 170.25L48.56 170.25L48.56 179.43L57.74 166.58L52.23 166.58L52.23 157.38Z" fill="#DA7DB5" fill-opacity="1.000000" fill-rule="nonzero"/>
		<path id="Vector" d="M50.39 150.23C40.34 150.23 32.17 158.39 32.17 168.45C32.17 178.5 40.34 186.64 50.39 186.64C60.44 186.64 68.6 178.48 68.6 168.45C68.6 158.41 60.44 150.23 50.39 150.23ZM50.39 184.39C41.56 184.39 34.4 177.23 34.4 168.41C34.4 159.58 41.56 152.42 50.39 152.42C59.22 152.42 66.38 159.58 66.38 168.41C66.38 177.23 59.22 184.39 50.39 184.39Z" fill="#DA7DB5" fill-opacity="1.000000" fill-rule="nonzero"/>
		<path id="Vector" d="M78.55 139.67C71.03 132.14 61.03 128.01 50.39 128.01C39.75 128.01 29.76 132.15 22.24 139.67C6.72 155.19 6.72 180.45 22.24 195.98C30 203.74 40.19 207.63 50.39 207.63C60.59 207.63 70.78 203.74 78.55 195.98C94.07 180.46 94.07 155.2 78.55 139.67ZM50.39 193.16C36.78 193.16 25.69 182.07 25.69 168.46C25.69 162.44 27.85 156.93 31.43 152.62L28.41 149.6C27.54 148.73 27.54 147.33 28.41 146.46C29.27 145.58 30.68 145.59 31.55 146.46L34.57 149.47C38.32 146.34 43.03 144.28 48.17 143.84L48.17 141.8L46.13 141.8C44.33 141.8 42.85 140.31 42.85 138.51L42.85 136.8C42.85 134.97 44.33 133.51 46.13 133.51L54.67 133.51C56.47 133.51 57.96 134.97 57.96 136.8L57.96 138.51C57.96 140.31 56.47 141.8 54.67 141.8L52.63 141.8L52.63 143.84C57.78 144.29 62.49 146.35 66.23 149.47L69.25 146.46C70.12 145.59 71.52 145.59 72.4 146.46C73.26 147.32 73.26 148.72 72.4 149.6L69.38 152.62C72.96 156.93 75.11 162.43 75.11 168.46C75.11 182.07 64.03 193.16 50.41 193.16L50.39 193.16Z" fill="#DA7DB5" fill-opacity="1.000000" fill-rule="nonzero"/>
		<path id="Vector" d="M51.33 99.09C24.01 99.09 1.78 76.85 1.78 49.54C1.78 22.23 24.02 0 51.33 0C78.64 0 100.87 22.23 100.87 49.54C100.87 76.85 78.64 99.09 51.33 99.09ZM51.33 3.29C25.83 3.29 5.08 24.04 5.08 49.54C5.08 75.04 25.83 95.79 51.33 95.79C76.83 95.79 97.57 75.04 97.57 49.54C97.57 24.04 76.83 3.29 51.33 3.29Z" fill="#FFFFFF" fill-opacity="1.000000" fill-rule="nonzero"/>
		<path id="Vector" d="M68.32 29.52L83.66 14.19L86.68 17.2L71.34 32.54L68.32 29.52Z" fill="#FFFFFF" fill-opacity="1.000000" fill-rule="evenodd"/>
		<path id="Vector" d="M15.52 82.32L30.86 66.98L33.88 70L18.54 85.34L15.52 82.32Z" fill="#FFFFFF" fill-opacity="1.000000" fill-rule="evenodd"/>
		<path id="Vector" d="M68.78 70L71.8 66.98L87.14 82.32L84.12 85.34L68.78 70Z" fill="#FFFFFF" fill-opacity="1.000000" fill-rule="evenodd"/>
		<path id="Vector" d="M15.53 16.74L18.55 13.72L33.88 29.05L30.86 32.07L15.53 16.74Z" fill="#FFFFFF" fill-opacity="1.000000" fill-rule="evenodd"/>
		<path id="Vector" d="M63.43 50.87C64.42 49.87 64.42 48.26 63.43 47.27L61.3 45.16C60.3 44.16 58.69 44.16 57.7 45.16L56.56 46.3L55.23 44.98C54.23 43.98 52.62 43.98 51.63 44.98L50.49 46.14L49.17 44.8C48.17 43.8 46.55 43.8 45.56 44.8L38.54 51.83C38.49 51.88 38.49 51.97 38.54 52.03C39.47 52.96 41 52.96 41.95 52.03L46.48 47.5C46.97 47.01 47.76 47.01 48.25 47.5L48.58 47.83C48.64 47.9 48.64 47.99 48.58 48.05L44.8 51.83C44.75 51.88 44.75 51.97 44.8 52.03C45.74 52.96 47.27 52.96 48.22 52.03L52.56 47.69C53.05 47.2 53.84 47.2 54.33 47.69L54.66 48.02C54.71 48.07 54.71 48.16 54.66 48.22L51.02 51.86C50.97 51.91 50.97 52 51.02 52.06C51.95 53 53.48 53 54.43 52.06L58.63 47.86C59.12 47.37 59.91 47.37 60.4 47.86L61.11 48.58C61.4 48.86 61.4 49.33 61.11 49.61L61 49.73C60.72 50.01 60.25 50.01 59.97 49.73L59.04 48.8C58.99 48.75 58.91 48.75 58.85 48.8L57.24 50.4C57.19 50.46 57.19 50.54 57.24 50.6L58.69 52.05C59.69 53.05 61.3 53.05 62.29 52.05L63.44 50.9L63.43 50.87Z" fill="#FFFFFF" fill-opacity="1.000000" fill-rule="nonzero"/>
		<path id="Vector" d="M51.33 11.54C30.35 11.54 13.34 28.55 13.34 49.53C13.34 70.51 30.35 87.52 51.33 87.52C72.31 87.52 89.32 70.51 89.32 49.53C89.32 28.55 72.31 11.54 51.33 11.54ZM52.88 23.27C58.98 23.62 64.52 26.06 68.81 29.87L63.32 35.35C60.46 32.93 56.85 31.36 52.88 31.02L52.88 23.27ZM49.79 23.27L49.79 31.02C45.82 31.35 42.21 32.93 39.35 35.35L33.86 29.87C38.15 26.06 43.69 23.62 49.79 23.27ZM31.68 32.05L37.16 37.54C34.74 40.4 33.17 44.01 32.83 47.98L25.08 47.98C25.43 41.88 27.87 36.34 31.68 32.05ZM25.08 51.07L32.83 51.07C33.16 55.04 34.74 58.65 37.16 61.51L31.68 67C27.87 62.71 25.43 57.17 25.08 51.07ZM49.79 75.78C43.69 75.43 38.15 72.99 33.86 69.18L39.35 63.7C42.21 66.12 45.82 67.69 49.79 68.03L49.79 75.78ZM35.36 49.52C35.36 40.7 42.51 33.55 51.33 33.55C60.15 33.55 67.3 40.7 67.3 49.52C67.3 58.34 60.15 65.49 51.33 65.49C42.51 65.49 35.36 58.34 35.36 49.52ZM52.88 75.78L52.88 68.03C56.85 67.7 60.46 66.12 63.32 63.7L68.81 69.18C64.52 72.99 58.98 75.43 52.88 75.78ZM70.99 67L65.51 61.51C67.93 58.65 69.5 55.04 69.84 51.07L77.59 51.07C77.24 57.17 74.8 62.71 70.99 67ZM69.84 47.98C69.51 44.01 67.93 40.4 65.51 37.54L70.99 32.05C74.8 36.34 77.24 41.88 77.59 47.98L69.84 47.98Z" fill="#FFFFFF" fill-opacity="1.000000" fill-rule="nonzero"/>
	</g>
</svg>
