<svg width="100.368164" height="1298.220215" viewBox="0 0 100.368 1298.22" fill="none" xmlns="http://www.w3.org/2000/svg" xmlns:xlink="http://www.w3.org/1999/xlink">
	<desc>
			Created with Pixso.
	</desc>
	<defs/>
	<g opacity="0.400000">
		<path id="Vector" d="M49.55 1298.22C36.85 1298.22 24.16 1293.39 14.49 1283.72C-4.84 1264.39 -4.84 1232.94 14.49 1213.62C23.86 1204.25 36.31 1199.1 49.55 1199.1C62.79 1199.1 75.24 1204.25 84.6 1213.62C103.93 1232.94 103.93 1264.39 84.6 1283.72C74.94 1293.38 62.25 1298.22 49.55 1298.22ZM17.09 1281.12C34.99 1299.01 64.1 1299.01 81.99 1281.12C99.88 1263.23 99.88 1234.11 81.99 1216.22C73.32 1207.55 61.8 1202.78 49.54 1202.78C37.28 1202.78 25.75 1207.56 17.08 1216.22C-0.81 1234.11 -0.81 1263.23 17.08 1281.12L17.09 1281.12Z" fill="#EBF29D" fill-opacity="1.000000" fill-rule="nonzero"/>
		<path id="Vector" d="M48.89 1267.21C49.07 1267.64 49.49 1267.89 49.92 1267.89C50.07 1267.89 50.21 1267.86 50.36 1267.81C53.86 1266.34 57.04 1264.06 59.56 1261.24C59.97 1260.78 59.93 1260.06 59.47 1259.67C59.01 1259.26 58.3 1259.3 57.9 1259.76C55.6 1262.35 52.69 1264.42 49.5 1265.76C48.93 1266 48.66 1266.65 48.9 1267.21L48.89 1267.21Z" fill="#EBF29D" fill-opacity="1.000000" fill-rule="nonzero"/>
		<path id="Vector" d="M68.44 1231.53L49.95 1224.14C49.68 1224.04 49.39 1224.04 49.12 1224.14L30.63 1231.53C30.21 1231.69 29.94 1232.1 29.94 1232.56L29.94 1245.8C29.96 1258.02 37.68 1269.06 49.15 1273.27C49.28 1273.31 49.4 1273.32 49.54 1273.32C49.67 1273.32 49.8 1273.31 49.92 1273.27C61.39 1269.06 69.11 1258.02 69.14 1245.8L69.14 1232.56C69.14 1232.1 68.86 1231.69 68.44 1231.53ZM66.91 1245.8C66.89 1256.92 59.91 1267.05 49.55 1271.03C39.18 1267.05 32.2 1256.92 32.17 1245.8L32.17 1233.31L49.55 1226.38L66.91 1233.31L66.91 1245.8Z" fill="#EBF29D" fill-opacity="1.000000" fill-rule="nonzero"/>
		<path id="Vector" d="M41.82 1233.27C41.55 1233.16 41.25 1233.16 40.97 1233.27L36.57 1235.03C36.14 1235.19 35.87 1235.6 35.87 1236.06L35.87 1240.75C35.87 1241.37 36.37 1241.87 36.98 1241.87C37.6 1241.87 38.1 1241.37 38.1 1240.75L38.1 1236.81L41.79 1235.34C42.07 1235.23 42.28 1235.02 42.41 1234.74C42.52 1234.47 42.52 1234.17 42.41 1233.88C42.29 1233.6 42.08 1233.4 41.81 1233.27L41.82 1233.27Z" fill="#EBF29D" fill-opacity="1.000000" fill-rule="nonzero"/>
		<path id="Vector" d="M77.69 1220.52C70.18 1212.99 60.17 1208.86 49.54 1208.86C38.9 1208.86 28.91 1213 21.38 1220.52C5.86 1236.04 5.86 1261.3 21.38 1276.82C29.15 1284.6 39.34 1288.47 49.54 1288.47C59.74 1288.47 69.93 1284.57 77.69 1276.82C93.21 1261.31 93.21 1236.05 77.69 1220.52ZM72.19 1245.8C72.22 1259.93 63.19 1272.28 49.73 1276.56C49.61 1276.6 49.47 1276.6 49.34 1276.56C35.88 1272.28 26.86 1259.93 26.89 1245.8L26.89 1230.18C26.89 1229.92 27.04 1229.68 27.29 1229.57L49.3 1220.78C49.37 1220.75 49.45 1220.74 49.54 1220.74C49.62 1220.74 49.7 1220.75 49.78 1220.78L71.78 1229.59C72.03 1229.68 72.19 1229.92 72.19 1230.18L72.19 1245.81L72.19 1245.8Z" fill="#EBF29D" fill-opacity="1.000000" fill-rule="nonzero"/>
		<path id="Vector" d="M49.69 1171.61C22.37 1171.61 0.15 1149.38 0.15 1122.06C0.15 1094.75 22.38 1072.52 49.69 1072.52C77 1072.52 99.24 1094.75 99.24 1122.06C99.24 1149.38 77 1171.61 49.69 1171.61ZM49.69 1075.81C24.19 1075.81 3.45 1096.56 3.45 1122.06C3.45 1147.56 24.19 1168.31 49.69 1168.31C75.19 1168.31 95.94 1147.56 95.94 1122.06C95.94 1096.56 75.19 1075.81 49.69 1075.81Z" fill="#FFFFFF" fill-opacity="1.000000" fill-rule="nonzero"/>
		<path id="Vector" d="M65.76 1091.12C65.51 1091.12 65.26 1091.06 65.03 1090.94C60.24 1088.57 55.07 1087.37 49.69 1087.37C44.31 1087.37 39.15 1088.57 34.35 1090.94C33.71 1091.27 32.96 1091.14 32.46 1090.64L23.94 1082.13C23.58 1081.76 23.41 1081.26 23.47 1080.75C23.54 1080.24 23.83 1079.79 24.26 1079.53C31.93 1074.93 40.73 1072.51 49.7 1072.51C58.67 1072.51 67.47 1074.93 75.14 1079.53C75.58 1079.79 75.87 1080.24 75.93 1080.75C75.99 1081.26 75.82 1081.76 75.46 1082.13L66.95 1090.64C66.63 1090.94 66.21 1091.12 65.77 1091.12L65.76 1091.12ZM49.69 1084.06C55.18 1084.06 60.47 1085.22 65.42 1087.48L71.58 1081.31C64.88 1077.69 57.35 1075.81 49.69 1075.81C42.03 1075.81 34.51 1077.69 27.8 1081.31L33.96 1087.48C38.92 1085.22 44.21 1084.06 49.69 1084.06Z" fill="#FFFFFF" fill-opacity="1.000000" fill-rule="nonzero"/>
		<path id="Vector" d="M49.69 1171.61C40.72 1171.61 31.92 1169.17 24.25 1164.57C23.81 1164.31 23.52 1163.88 23.46 1163.37C23.4 1162.86 23.58 1162.36 23.93 1161.99L32.44 1153.48C32.94 1152.98 33.71 1152.85 34.34 1153.17C39.14 1155.54 44.3 1156.75 49.68 1156.75C55.06 1156.75 60.22 1155.54 65.02 1153.17C65.66 1152.85 66.42 1152.98 66.92 1153.48L75.43 1161.99C75.8 1162.36 75.96 1162.86 75.9 1163.37C75.84 1163.88 75.55 1164.31 75.11 1164.57C67.44 1169.18 58.64 1171.61 49.67 1171.61L49.69 1171.61ZM27.8 1162.8C34.5 1166.42 42.03 1168.31 49.69 1168.31C57.35 1168.31 64.88 1166.42 71.58 1162.8L65.42 1156.64C60.46 1158.9 55.18 1160.05 49.69 1160.05C44.21 1160.05 38.92 1158.9 33.96 1156.64L27.8 1162.8Z" fill="#FFFFFF" fill-opacity="1.000000" fill-rule="nonzero"/>
		<path id="Vector" d="M90.8 1148.29C90.36 1148.29 89.94 1148.13 89.63 1147.81L81.12 1139.3C80.62 1138.8 80.49 1138.03 80.81 1137.41C83.18 1132.61 84.39 1127.44 84.39 1122.06C84.39 1116.68 83.18 1111.52 80.81 1106.72C80.49 1106.09 80.62 1105.31 81.12 1104.82L89.63 1096.31C90 1095.94 90.5 1095.78 91.01 1095.85C91.52 1095.91 91.96 1096.19 92.22 1096.64C96.82 1104.31 99.25 1113.1 99.25 1122.06C99.25 1131.05 96.82 1139.84 92.22 1147.51C91.96 1147.94 91.52 1148.24 91.01 1148.3C90.93 1148.3 90.87 1148.3 90.8 1148.3L90.8 1148.29ZM84.27 1137.78L90.43 1143.93C94.05 1137.24 95.94 1129.71 95.94 1122.05C95.94 1114.39 94.05 1106.87 90.43 1100.16L84.27 1106.32C86.53 1111.28 87.68 1116.56 87.68 1122.05C87.68 1127.54 86.53 1132.82 84.27 1137.78Z" fill="#FFFFFF" fill-opacity="1.000000" fill-rule="nonzero"/>
		<path id="Vector" d="M8.59 1148.29C8.52 1148.29 8.45 1148.29 8.39 1148.28C7.88 1148.22 7.43 1147.93 7.17 1147.49C2.57 1139.81 0.15 1131.03 0.15 1122.05C0.15 1113.07 2.57 1104.29 7.17 1096.62C7.43 1096.18 7.88 1095.89 8.39 1095.81C8.9 1095.76 9.4 1095.93 9.77 1096.29L18.28 1104.81C18.78 1105.31 18.9 1106.07 18.59 1106.69C16.22 1111.5 15.01 1116.66 15.01 1122.04C15.01 1127.43 16.22 1132.59 18.59 1137.39C18.9 1138.02 18.78 1138.79 18.28 1139.28L9.77 1147.79C9.45 1148.11 9.04 1148.28 8.6 1148.28L8.59 1148.29ZM8.95 1100.16C5.34 1106.87 3.45 1114.39 3.45 1122.05C3.45 1129.71 5.34 1137.24 8.95 1143.93L15.12 1137.78C12.86 1132.82 11.71 1127.54 11.71 1122.05C11.71 1116.56 12.86 1111.28 15.12 1106.32L8.95 1100.16Z" fill="#FFFFFF" fill-opacity="1.000000" fill-rule="nonzero"/>
		<path id="Vector" d="M49.69 1084.06C28.75 1084.06 11.7 1101.11 11.7 1122.06C11.7 1143.02 28.74 1160.06 49.69 1160.06C70.65 1160.06 87.69 1143.02 87.69 1122.06C87.69 1101.11 70.65 1084.06 49.69 1084.06ZM71.07 1109.57C72.87 1112.67 73.97 1116.03 74.32 1119.6C74.33 1119.74 74.27 1119.88 74.14 1119.94C71.43 1121.62 68.99 1123.66 66.89 1126.04C66.79 1126.16 66.64 1126.19 66.5 1126.14L61.81 1124.61C61.67 1124.56 61.58 1124.46 61.56 1124.31C61.03 1120.43 59.82 1116.71 57.97 1113.26C57.91 1113.13 57.92 1112.99 58 1112.87L60.9 1108.88C60.98 1108.78 61.09 1108.72 61.21 1108.72C61.24 1108.72 61.26 1108.72 61.29 1108.72C64.39 1109.41 67.58 1109.64 70.74 1109.38C70.89 1109.37 71.02 1109.43 71.09 1109.56L71.07 1109.57ZM59 1124.97C59.01 1125.06 58.98 1125.18 58.92 1125.25C56.45 1128.09 53.31 1130.37 49.84 1131.82C49.75 1131.87 49.65 1131.87 49.56 1131.82C46.09 1130.36 42.95 1128.07 40.48 1125.25C40.42 1125.18 40.39 1125.06 40.4 1124.97C40.88 1121.19 42.05 1117.6 43.88 1114.27C43.93 1114.17 44.01 1114.11 44.11 1114.09C45.95 1113.71 47.82 1113.51 49.7 1113.51C51.59 1113.51 53.46 1113.71 55.29 1114.09C55.4 1114.11 55.48 1114.17 55.53 1114.27C57.35 1117.6 58.52 1121.19 59.01 1124.97L59 1124.97ZM58.44 1099.13C58.44 1099.13 58.56 1099.03 58.69 1099.03C58.73 1099.03 58.78 1099.03 58.83 1099.06C62.66 1100.57 66.09 1103.07 68.75 1106.27C68.89 1106.43 68.84 1106.6 68.8 1106.66C68.78 1106.71 68.69 1106.88 68.47 1106.88C66.11 1106.91 63.76 1106.64 61.48 1106.1C61.38 1106.07 61.3 1106.01 61.25 1105.93C60.03 1103.92 59.05 1101.76 58.34 1099.51C58.28 1099.31 58.4 1099.18 58.45 1099.13L58.44 1099.13ZM44.44 1097.89C47.88 1097.15 51.52 1097.15 54.96 1097.89C55.1 1097.92 55.21 1098.02 55.24 1098.16C55.98 1101.25 57.18 1104.19 58.79 1106.93C58.86 1107.06 58.85 1107.22 58.77 1107.35L55.89 1111.31C55.8 1111.43 55.66 1111.5 55.52 1111.47C51.71 1110.69 47.68 1110.69 43.88 1111.47C43.74 1111.5 43.59 1111.43 43.51 1111.31L40.63 1107.35C40.54 1107.23 40.53 1107.06 40.61 1106.93C42.22 1104.19 43.42 1101.25 44.16 1098.16C44.19 1098.02 44.3 1097.92 44.44 1097.89ZM30.65 1106.27C33.31 1103.06 36.73 1100.56 40.57 1099.06C40.62 1099.04 40.67 1099.03 40.71 1099.03C40.85 1099.03 40.93 1099.1 40.96 1099.13C41.01 1099.18 41.13 1099.31 41.06 1099.51C40.36 1101.77 39.38 1103.92 38.16 1105.93C38.11 1106.01 38.03 1106.07 37.93 1106.1C35.65 1106.64 33.3 1106.91 30.94 1106.88C30.72 1106.88 30.62 1106.71 30.6 1106.66C30.57 1106.6 30.52 1106.43 30.66 1106.27L30.65 1106.27ZM28.32 1109.57C28.39 1109.47 28.51 1109.4 28.65 1109.4C28.65 1109.4 28.67 1109.4 28.68 1109.4C31.85 1109.65 35.04 1109.43 38.13 1108.74C38.28 1108.71 38.42 1108.76 38.5 1108.89L41.41 1112.88C41.49 1113 41.5 1113.15 41.44 1113.27C39.59 1116.72 38.38 1120.43 37.85 1124.31C37.83 1124.46 37.73 1124.56 37.6 1124.62L32.9 1126.16C32.77 1126.19 32.61 1126.16 32.52 1126.05C30.42 1123.67 27.98 1121.63 25.26 1119.96C25.15 1119.89 25.08 1119.75 25.09 1119.61C25.44 1116.04 26.53 1112.67 28.34 1109.59L28.32 1109.57ZM29.46 1135.23C29.4 1135.43 29.22 1135.47 29.15 1135.48C29.07 1135.48 28.91 1135.48 28.79 1135.31C26.58 1131.82 25.26 1127.79 25 1123.65C24.99 1123.43 25.13 1123.32 25.19 1123.3C25.25 1123.27 25.42 1123.19 25.59 1123.31C27.51 1124.68 29.26 1126.29 30.79 1128.06C30.85 1128.14 30.89 1128.24 30.87 1128.34C30.69 1130.68 30.21 1133 29.45 1135.24L29.46 1135.23ZM39.74 1144.73C36.5 1143.31 33.63 1141.22 31.24 1138.53C31.15 1138.43 31.11 1138.27 31.17 1138.15C32.38 1135.21 33.15 1132.12 33.46 1128.96C33.47 1128.81 33.57 1128.68 33.71 1128.64L38.35 1127.13C38.35 1127.13 38.42 1127.11 38.46 1127.11C38.57 1127.11 38.66 1127.15 38.73 1127.24C41.34 1130.15 44.59 1132.53 48.16 1134.1C48.3 1134.16 48.38 1134.28 48.38 1134.43L48.38 1139.31C48.38 1139.46 48.3 1139.59 48.16 1139.64C45.25 1140.9 42.54 1142.6 40.12 1144.67C40.01 1144.77 39.86 1144.79 39.73 1144.72L39.74 1144.73ZM56.12 1145.76C56.11 1145.84 56.05 1146 55.85 1146.06C51.83 1147.07 47.58 1147.07 43.56 1146.06C43.37 1146 43.3 1145.84 43.29 1145.76C43.28 1145.68 43.26 1145.53 43.44 1145.39C45.33 1143.99 47.39 1142.81 49.57 1141.9C49.66 1141.86 49.76 1141.86 49.85 1141.9C52.01 1142.81 54.08 1143.99 55.98 1145.39C56.15 1145.52 56.14 1145.68 56.13 1145.76L56.12 1145.76ZM68.18 1138.54C65.79 1141.23 62.92 1143.31 59.68 1144.73C59.54 1144.8 59.39 1144.77 59.29 1144.68C56.87 1142.61 54.17 1140.91 51.24 1139.66C51.11 1139.59 51.03 1139.47 51.03 1139.31L51.03 1134.43C51.03 1134.29 51.11 1134.16 51.24 1134.11C54.81 1132.54 58.08 1130.16 60.67 1127.25C60.75 1127.16 60.84 1127.12 60.95 1127.12C60.99 1127.12 61.02 1127.12 61.06 1127.14L65.7 1128.65C65.84 1128.68 65.94 1128.81 65.95 1128.97C66.25 1132.13 67.02 1135.21 68.24 1138.16C68.29 1138.28 68.27 1138.43 68.17 1138.54L68.18 1138.54ZM70.61 1135.32C70.5 1135.5 70.32 1135.5 70.26 1135.49C70.19 1135.49 70.02 1135.43 69.95 1135.24C69.2 1133 68.72 1130.68 68.52 1128.34C68.52 1128.25 68.54 1128.14 68.61 1128.06C70.14 1126.29 71.88 1124.69 73.81 1123.31C73.88 1123.27 73.96 1123.25 74.02 1123.25C74.1 1123.25 74.16 1123.28 74.21 1123.3C74.27 1123.32 74.41 1123.43 74.39 1123.65C74.13 1127.79 72.82 1131.82 70.6 1135.31L70.61 1135.32Z" fill="#FFFFFF" fill-opacity="1.000000" fill-rule="nonzero"/>
		<path id="Vector" d="M49.55 1048.15C36.85 1048.15 24.16 1043.31 14.49 1033.65C-4.84 1014.32 -4.84 982.88 14.49 963.55C23.86 954.18 36.31 949.03 49.55 949.03C62.79 949.03 75.24 954.18 84.6 963.55C103.93 982.88 103.93 1014.32 84.6 1033.65C74.94 1043.31 62.25 1048.15 49.55 1048.15ZM17.09 1031.05C34.99 1048.93 64.1 1048.93 81.99 1031.05C99.88 1013.16 99.88 984.04 81.99 966.15C73.32 957.48 61.8 952.71 49.54 952.71C37.28 952.71 25.75 957.49 17.08 966.15C-0.81 984.04 -0.81 1013.16 17.08 1031.05L17.09 1031.05Z" fill="#EBF29D" fill-opacity="1.000000" fill-rule="nonzero"/>
		<path id="Vector" d="M48.89 1017.16C49.07 1017.58 49.49 1017.83 49.92 1017.83C50.07 1017.83 50.21 1017.8 50.36 1017.75C53.86 1016.28 57.04 1014.01 59.56 1011.18C59.97 1010.72 59.93 1010.02 59.47 1009.61C59.01 1009.2 58.3 1009.25 57.9 1009.7C55.6 1012.3 52.69 1014.37 49.5 1015.7C48.93 1015.94 48.66 1016.59 48.9 1017.16L48.89 1017.16Z" fill="#EBF29D" fill-opacity="1.000000" fill-rule="nonzero"/>
		<path id="Vector" d="M68.44 981.46L49.95 974.07C49.68 973.97 49.39 973.97 49.12 974.07L30.63 981.46C30.21 981.63 29.94 982.03 29.94 982.49L29.94 995.73C29.96 1007.95 37.68 1019 49.15 1023.2C49.28 1023.24 49.4 1023.27 49.54 1023.27C49.67 1023.27 49.8 1023.24 49.92 1023.2C61.39 1018.99 69.11 1007.95 69.14 995.73L69.14 982.49C69.14 982.03 68.86 981.63 68.44 981.46ZM66.91 995.73C66.89 1006.85 59.91 1016.98 49.55 1020.97C39.18 1016.98 32.2 1006.85 32.17 995.73L32.17 983.25L49.55 976.31L66.91 983.25L66.91 995.73Z" fill="#EBF29D" fill-opacity="1.000000" fill-rule="nonzero"/>
		<path id="Vector" d="M41.82 983.2C41.55 983.08 41.25 983.08 40.97 983.2L36.57 984.96C36.14 985.12 35.87 985.53 35.87 985.99L35.87 990.68C35.87 991.3 36.37 991.8 36.98 991.8C37.6 991.8 38.1 991.3 38.1 990.68L38.1 986.75L41.79 985.27C42.07 985.15 42.28 984.95 42.41 984.67C42.52 984.39 42.52 984.09 42.41 983.81C42.29 983.53 42.08 983.32 41.81 983.2L41.82 983.2Z" fill="#EBF29D" fill-opacity="1.000000" fill-rule="nonzero"/>
		<path id="Vector" d="M77.69 970.45C70.18 962.92 60.17 958.79 49.54 958.79C38.9 958.79 28.91 962.93 21.38 970.45C5.86 985.97 5.86 1011.23 21.38 1026.76C29.15 1034.53 39.34 1038.4 49.54 1038.4C59.74 1038.4 69.93 1034.52 77.69 1026.76C93.21 1011.24 93.21 985.98 77.69 970.45ZM72.19 995.73C72.22 1009.86 63.19 1022.21 49.73 1026.49C49.61 1026.53 49.47 1026.53 49.34 1026.49C35.88 1022.21 26.86 1009.86 26.89 995.73L26.89 980.11C26.89 979.85 27.04 979.61 27.29 979.5L49.3 970.71C49.37 970.68 49.45 970.67 49.54 970.67C49.62 970.67 49.7 970.68 49.78 970.71L71.78 979.51C72.03 979.61 72.19 979.85 72.19 980.12L72.19 995.74L72.19 995.73Z" fill="#EBF29D" fill-opacity="1.000000" fill-rule="nonzero"/>
		<path id="Vector" d="M49.96 925.84C22.64 925.84 0.42 903.6 0.42 876.29C0.42 848.98 22.65 826.75 49.96 826.75C77.27 826.75 99.51 848.98 99.51 876.29C99.51 903.6 77.27 925.84 49.96 925.84ZM49.96 830.05C24.46 830.05 3.72 850.79 3.72 876.29C3.72 901.79 24.46 922.54 49.96 922.54C75.46 922.54 96.21 901.79 96.21 876.29C96.21 850.79 75.46 830.05 49.96 830.05Z" fill="#11F8A5" fill-opacity="1.000000" fill-rule="nonzero"/>
		<path id="Vector" d="M66.94 856.28L82.28 840.94L85.3 843.96L69.96 859.3L66.94 856.28Z" fill="#11F8A5" fill-opacity="1.000000" fill-rule="evenodd"/>
		<path id="Vector" d="M14.15 909.07L29.49 893.74L32.51 896.75L17.17 912.09L14.15 909.07Z" fill="#11F8A5" fill-opacity="1.000000" fill-rule="evenodd"/>
		<path id="Vector" d="M67.41 896.77L70.43 893.75L85.77 909.09L82.75 912.11L67.41 896.77Z" fill="#11F8A5" fill-opacity="1.000000" fill-rule="evenodd"/>
		<path id="Vector" d="M14.15 843.5L17.16 840.48L32.5 855.81L29.48 858.83L14.15 843.5Z" fill="#11F8A5" fill-opacity="1.000000" fill-rule="evenodd"/>
		<path id="Vector" d="M62.05 877.62C63.05 876.62 63.05 875.01 62.05 874.02L59.92 871.91C58.92 870.91 57.31 870.91 56.32 871.91L55.18 873.05L53.85 871.73C52.86 870.73 51.24 870.73 50.25 871.73L49.11 872.89L47.79 871.56C46.79 870.56 45.17 870.56 44.18 871.56L37.16 878.58C37.11 878.63 37.11 878.72 37.16 878.78C38.1 879.72 39.63 879.72 40.57 878.78L45.1 874.25C45.59 873.76 46.38 873.76 46.87 874.25L47.2 874.58C47.27 874.65 47.27 874.74 47.2 874.8L43.42 878.58C43.37 878.63 43.37 878.72 43.42 878.78C44.36 879.72 45.89 879.72 46.84 878.78L51.18 874.44C51.67 873.95 52.46 873.95 52.95 874.44L53.28 874.77C53.33 874.82 53.33 874.91 53.28 874.97L49.64 878.61C49.59 878.66 49.59 878.75 49.64 878.81C50.58 879.75 52.11 879.75 53.05 878.81L57.25 874.62C57.74 874.13 58.53 874.13 59.02 874.62L59.74 875.33C60.02 875.61 60.02 876.08 59.74 876.36L59.62 876.48C59.34 876.76 58.87 876.76 58.59 876.48L57.66 875.55C57.61 875.5 57.53 875.5 57.47 875.55L55.86 877.16C55.81 877.21 55.81 877.29 55.86 877.35L57.31 878.8C58.31 879.8 59.92 879.8 60.91 878.8L62.06 877.65L62.05 877.62Z" fill="#11F8A5" fill-opacity="1.000000" fill-rule="nonzero"/>
		<path id="Vector" d="M49.96 838.3C28.98 838.3 11.97 855.31 11.97 876.29C11.97 897.28 28.98 914.28 49.96 914.28C70.95 914.28 87.95 897.28 87.95 876.29C87.95 855.31 70.95 838.3 49.96 838.3ZM51.51 850.03C57.61 850.38 63.15 852.82 67.44 856.63L61.95 862.11C59.09 859.69 55.48 858.12 51.51 857.78L51.51 850.03ZM48.42 850.03L48.42 857.78C44.46 858.11 40.85 859.69 37.98 862.11L32.5 856.63C36.79 852.82 42.32 850.38 48.42 850.03ZM30.31 858.82L35.8 864.3C33.37 867.16 31.8 870.77 31.47 874.74L23.71 874.74C24.07 868.64 26.5 863.1 30.31 858.82ZM23.71 877.83L31.47 877.83C31.79 881.8 33.37 885.41 35.8 888.27L30.31 893.76C26.5 889.47 24.07 883.93 23.71 877.83ZM48.42 902.54C42.32 902.19 36.79 899.75 32.5 895.94L37.98 890.46C40.85 892.88 44.46 894.45 48.42 894.79L48.42 902.54ZM34 876.28C34 867.46 41.15 860.31 49.96 860.31C58.78 860.31 65.93 867.46 65.93 876.28C65.93 885.1 58.78 892.25 49.96 892.25C41.15 892.25 34 885.1 34 876.28ZM51.51 902.54L51.51 894.79C55.48 894.46 59.09 892.88 61.95 890.46L67.44 895.94C63.15 899.75 57.61 902.19 51.51 902.54ZM69.62 893.76L64.14 888.27C66.56 885.41 68.14 881.8 68.47 877.83L76.22 877.83C75.87 883.93 73.43 889.47 69.62 893.76ZM68.47 874.74C68.15 870.77 66.56 867.16 64.14 864.3L69.62 858.82C73.43 863.1 75.87 868.64 76.22 874.74L68.47 874.74Z" fill="#11F8A5" fill-opacity="1.000000" fill-rule="nonzero"/>
		<path id="Vector" d="M15.06 781.48C-4.43 761.99 -4.43 730.28 15.06 710.79C34.55 691.3 66.26 691.3 85.75 710.79C105.24 730.28 105.24 761.99 85.75 781.48C66.26 800.96 34.55 800.96 15.06 781.48ZM83.39 713.14C65.2 694.95 35.6 694.95 17.42 713.14C-0.77 731.33 -0.77 760.93 17.42 779.11C35.61 797.31 65.2 797.31 83.39 779.11C101.58 760.92 101.58 731.33 83.39 713.14Z" fill="#FFFFFF" fill-opacity="1.000000" fill-rule="nonzero"/>
		<path id="Vector" d="M83.93 735.53C83.75 735.35 83.61 735.13 83.53 734.88C81.8 729.77 78.98 725.23 75.14 721.39C71.3 717.56 66.76 714.73 61.64 713C60.97 712.76 60.51 712.13 60.51 711.42L60.51 699.27C60.51 698.76 60.75 698.27 61.15 697.96C61.56 697.64 62.08 697.53 62.58 697.65C71.33 699.84 79.34 704.38 85.74 710.79C92.13 717.19 96.67 725.2 98.86 733.95C98.99 734.44 98.87 734.97 98.56 735.38C98.24 735.78 97.76 736.02 97.25 736.02L85.1 736.02C84.65 736.02 84.23 735.83 83.92 735.52L83.93 735.53ZM77.49 719.03C81.41 722.95 84.36 727.54 86.29 732.68L95.07 732.68C92.86 725.33 88.85 718.61 83.38 713.14C77.92 707.68 71.2 703.66 63.85 701.46L63.85 710.25C68.99 712.17 73.58 715.12 77.5 719.04L77.49 719.03Z" fill="#FFFFFF" fill-opacity="1.000000" fill-rule="nonzero"/>
		<path id="Vector" d="M15.06 781.48C8.66 775.08 4.11 767.07 1.92 758.32C1.8 757.82 1.91 757.29 2.23 756.89C2.54 756.48 3.03 756.25 3.54 756.25L15.69 756.25C16.4 756.25 17.04 756.71 17.26 757.38C18.99 762.5 21.82 767.04 25.66 770.88C29.49 774.71 34.03 777.54 39.15 779.27C39.83 779.5 40.29 780.13 40.29 780.85L40.29 793C40.29 793.51 40.05 793.99 39.65 794.31C39.24 794.63 38.71 794.74 38.21 794.61C29.47 792.42 21.46 787.88 15.06 781.49L15.06 781.48ZM5.72 759.58C7.93 766.93 11.95 773.65 17.41 779.12C22.88 784.58 29.6 788.6 36.95 790.81L36.95 782.02C31.81 780.1 27.22 777.15 23.3 773.23C19.39 769.32 16.44 764.73 14.51 759.58L5.72 759.58L5.72 759.58Z" fill="#FFFFFF" fill-opacity="1.000000" fill-rule="nonzero"/>
		<path id="Vector" d="M61.01 794.17C60.69 793.86 60.52 793.43 60.52 792.99L60.52 780.84C60.52 780.12 60.97 779.49 61.65 779.26C66.77 777.53 71.31 774.71 75.14 770.87C78.98 767.03 81.8 762.49 83.54 757.37C83.77 756.7 84.4 756.24 85.12 756.24L97.27 756.24C97.78 756.24 98.26 756.48 98.58 756.88C98.9 757.28 99 757.81 98.88 758.31C96.69 767.06 92.15 775.06 85.75 781.47C79.35 787.87 71.34 792.41 62.59 794.6C62.09 794.72 61.57 794.61 61.16 794.3C61.11 794.25 61.06 794.21 61.01 794.16L61.01 794.17ZM63.85 782.02L63.85 790.8C71.21 788.59 77.93 784.58 83.39 779.11C88.86 773.65 92.87 766.93 95.08 759.57L86.29 759.57C84.37 764.72 81.42 769.3 77.5 773.22C73.59 777.14 69 780.1 63.85 782.02Z" fill="#FFFFFF" fill-opacity="1.000000" fill-rule="nonzero"/>
		<path id="Vector" d="M2.36 735.53C2.31 735.48 2.26 735.43 2.23 735.38C1.91 734.97 1.8 734.44 1.92 733.95C4.11 725.2 8.65 717.19 15.06 710.79C21.46 704.39 29.47 699.84 38.22 697.65C38.71 697.53 39.24 697.64 39.64 697.96C40.04 698.27 40.28 698.76 40.28 699.27L40.28 711.42C40.28 712.13 39.83 712.77 39.15 713C34.03 714.73 29.49 717.55 25.65 721.39C21.82 725.22 19 729.77 17.26 734.88C17.03 735.56 16.4 736.02 15.68 736.02L3.53 736.02C3.09 736.02 2.66 735.84 2.35 735.53L2.36 735.53ZM36.95 701.46C29.59 703.67 22.87 707.68 17.41 713.15C11.94 718.61 7.93 725.33 5.72 732.69L14.51 732.69C16.43 727.54 19.38 722.96 23.3 719.04C27.21 715.12 31.8 712.17 36.95 710.25L36.95 701.46Z" fill="#FFFFFF" fill-opacity="1.000000" fill-rule="nonzero"/>
		<path id="Vector" d="M77.5 719.03C62.56 704.09 38.24 704.09 23.3 719.03C8.36 733.98 8.36 758.29 23.3 773.23C38.24 788.17 62.55 788.17 77.5 773.23C92.44 758.28 92.44 733.97 77.5 719.03Z" fill="#FFFFFF" fill-opacity="1.000000" fill-rule="nonzero"/>
		<path id="Vector" d="M36.69 759.99L64.22 759.81C65.38 759.8 66.33 760.74 66.33 761.89L66.34 762.88C66.35 764.04 65.41 764.98 64.25 764.99L36.73 765.17C35.57 765.18 34.62 764.25 34.61 763.09L34.61 762.1C34.6 760.95 35.53 760 36.69 759.99Z" fill="#191D0A" fill-opacity="1.000000" fill-rule="evenodd"/>
		<path id="Vector" d="M40.44 743.19C40.14 743.19 39.84 743.13 39.57 742.99L37.42 741.96C36.49 741.5 36.06 740.4 36.45 739.43L37.43 736.98C37.74 736.23 38.45 735.74 39.26 735.74C39.6 735.74 39.95 735.82 40.25 736L42.81 737.46C43.29 737.73 43.63 738.2 43.76 738.74C43.88 739.28 43.77 739.85 43.46 740.3L42.05 742.33C41.69 742.87 41.08 743.19 40.44 743.19L40.44 743.19Z" fill="#191D0A" fill-opacity="1.000000" fill-rule="nonzero"/>
		<path id="Vector" d="M60.26 743.06C59.61 743.06 59 742.75 58.63 742.23L57.24 740.27C56.92 739.82 56.81 739.25 56.92 738.71C57.03 738.17 57.38 737.69 57.85 737.41L60.49 735.87C60.79 735.69 61.13 735.6 61.48 735.59C62.29 735.59 63.01 736.06 63.32 736.81L64.32 739.19C64.72 740.15 64.31 741.26 63.38 741.73L61.13 742.85C60.86 742.98 60.56 743.06 60.26 743.06L60.26 743.06Z" fill="#191D0A" fill-opacity="1.000000" fill-rule="nonzero"/>
		<path id="Vector" d="M38.28 758.15C37.07 758.16 35.99 757.4 35.57 756.26L30.98 743.62C30.69 743.77 30.37 743.88 30.06 743.96C29.68 744.05 29.3 744.1 28.92 744.1C28.7 744.1 28.48 744.09 28.27 744.06C25.87 743.76 24.06 741.7 24.04 739.29C24.02 736.61 26.18 734.42 28.86 734.41C31.53 734.39 33.72 736.55 33.73 739.22C33.73 739.84 33.63 740.43 33.41 740.98C33.29 741.29 33.15 741.58 32.98 741.85L41.71 746.08L48.39 736.4C48.12 736.28 47.84 736.13 47.59 735.95C47.11 735.63 46.68 735.22 46.34 734.74C45.76 733.93 45.45 732.96 45.45 731.97C45.43 729.3 47.59 727.11 50.26 727.09C50.38 727.09 50.5 727.09 50.62 727.1C53.02 727.26 54.95 729.18 55.13 731.57C55.21 732.7 54.91 733.79 54.26 734.71C53.92 735.2 53.5 735.61 53.03 735.94C52.77 736.11 52.5 736.26 52.22 736.38L59.03 745.96L67.62 741.66C67.46 741.35 67.33 741.03 67.24 740.69C67.12 740.29 67.06 739.86 67.06 739.43C67.06 739.24 67.07 739.04 67.09 738.85C67.36 736.41 69.42 734.57 71.87 734.55C74.54 734.53 76.73 736.69 76.75 739.37C76.77 741.92 74.79 744.06 72.24 744.24L71.94 744.24C71.44 744.24 70.96 744.18 70.49 744.04C70.19 743.94 69.89 743.82 69.62 743.67L65.31 756.07C64.91 757.21 63.83 757.98 62.62 757.99L38.28 758.15L38.28 758.15Z" fill="#191D0A" fill-opacity="1.000000" fill-rule="nonzero"/>
		<path id="Vector" d="M49.55 675C36.85 675 24.16 670.17 14.49 660.5C-4.84 641.17 -4.84 609.72 14.49 590.39C23.86 581.03 36.31 575.87 49.55 575.87C62.79 575.87 75.24 581.03 84.6 590.39C103.93 609.72 103.93 641.17 84.6 660.5C74.94 670.16 62.25 675 49.55 675ZM17.09 657.89C34.99 675.79 64.1 675.79 81.99 657.89C99.88 640 99.88 610.89 81.99 593C73.32 584.33 61.8 579.56 49.54 579.56C37.28 579.56 25.75 584.34 17.08 593C-0.81 610.89 -0.81 640 17.08 657.89L17.09 657.89Z" fill="#EBF29D" fill-opacity="1.000000" fill-rule="nonzero"/>
		<path id="Vector" d="M48.89 643.99C49.07 644.42 49.49 644.66 49.92 644.66C50.07 644.66 50.21 644.63 50.36 644.58C53.86 643.11 57.04 640.84 59.56 638.01C59.97 637.56 59.93 636.85 59.47 636.44C59.01 636.04 58.3 636.08 57.9 636.53C55.6 639.13 52.69 641.2 49.5 642.53C48.93 642.77 48.66 643.43 48.9 643.99L48.89 643.99Z" fill="#EBF29D" fill-opacity="1.000000" fill-rule="nonzero"/>
		<path id="Vector" d="M68.44 608.31L49.95 600.92C49.68 600.81 49.39 600.81 49.12 600.92L30.63 608.31C30.21 608.47 29.94 608.88 29.94 609.34L29.94 622.58C29.96 634.8 37.68 645.84 49.15 650.05C49.28 650.09 49.4 650.11 49.54 650.11C49.67 650.11 49.8 650.09 49.92 650.05C61.39 645.83 69.11 634.8 69.14 622.58L69.14 609.34C69.14 608.88 68.86 608.47 68.44 608.31ZM66.91 622.58C66.89 633.69 59.91 643.82 49.55 647.81C39.18 643.82 32.2 633.69 32.17 622.58L32.17 610.1L49.55 603.15L66.91 610.1L66.91 622.58Z" fill="#EBF29D" fill-opacity="1.000000" fill-rule="nonzero"/>
		<path id="Vector" d="M41.82 610.05C41.55 609.93 41.25 609.93 40.97 610.05L36.57 611.8C36.14 611.97 35.87 612.38 35.87 612.84L35.87 617.53C35.87 618.14 36.37 618.64 36.98 618.64C37.6 618.64 38.1 618.14 38.1 617.53L38.1 613.59L41.79 612.12C42.07 612 42.28 611.79 42.41 611.51C42.52 611.24 42.52 610.94 42.41 610.66C42.29 610.38 42.08 610.17 41.81 610.05L41.82 610.05Z" fill="#EBF29D" fill-opacity="1.000000" fill-rule="nonzero"/>
		<path id="Vector" d="M77.69 597.3C70.18 589.77 60.17 585.64 49.54 585.64C38.9 585.64 28.91 589.78 21.38 597.3C5.86 612.81 5.86 638.08 21.38 653.61C29.15 661.37 39.34 665.24 49.54 665.24C59.74 665.24 69.93 661.36 77.69 653.61C93.21 638.09 93.21 612.82 77.69 597.3ZM72.19 622.58C72.22 636.7 63.19 649.06 49.73 653.34C49.61 653.38 49.47 653.38 49.34 653.34C35.88 649.06 26.86 636.7 26.89 622.58L26.89 606.95C26.89 606.69 27.04 606.45 27.29 606.35L49.3 597.56C49.37 597.52 49.45 597.51 49.54 597.51C49.62 597.51 49.7 597.52 49.78 597.56L71.78 606.36C72.03 606.45 72.19 606.69 72.19 606.96L72.19 622.59L72.19 622.58Z" fill="#EBF29D" fill-opacity="1.000000" fill-rule="nonzero"/>
		<path id="Vector" d="M49.69 548.38C22.37 548.38 0.15 526.15 0.15 498.84C0.15 471.53 22.38 449.29 49.69 449.29C77 449.29 99.24 471.53 99.24 498.84C99.24 526.15 77 548.38 49.69 548.38ZM49.69 452.59C24.19 452.59 3.45 473.34 3.45 498.84C3.45 524.34 24.19 545.09 49.69 545.09C75.19 545.09 95.94 524.34 95.94 498.84C95.94 473.34 75.19 452.59 49.69 452.59Z" fill="#FFFFFF" fill-opacity="1.000000" fill-rule="nonzero"/>
		<path id="Vector" d="M65.76 467.89C65.51 467.89 65.26 467.84 65.03 467.73C60.24 465.36 55.07 464.15 49.69 464.15C44.31 464.15 39.15 465.36 34.35 467.73C33.71 468.04 32.96 467.92 32.46 467.42L23.94 458.9C23.58 458.54 23.41 458.04 23.47 457.53C23.54 457.02 23.83 456.57 24.26 456.31C31.93 451.71 40.73 449.28 49.7 449.28C58.67 449.28 67.47 451.72 75.14 456.31C75.58 456.57 75.87 457.02 75.93 457.53C75.99 458.04 75.82 458.54 75.46 458.9L66.95 467.42C66.63 467.73 66.21 467.89 65.77 467.89L65.76 467.89ZM49.69 460.85C55.18 460.85 60.47 461.99 65.42 464.25L71.58 458.09C64.88 454.48 57.35 452.58 49.69 452.58C42.03 452.58 34.51 454.48 27.8 458.09L33.96 464.25C38.92 461.99 44.21 460.85 49.69 460.85Z" fill="#FFFFFF" fill-opacity="1.000000" fill-rule="nonzero"/>
		<path id="Vector" d="M49.69 548.38C40.72 548.38 31.92 545.95 24.25 541.36C23.81 541.1 23.52 540.65 23.46 540.14C23.4 539.63 23.58 539.13 23.93 538.77L32.44 530.25C32.94 529.75 33.71 529.63 34.34 529.94C39.14 532.31 44.3 533.52 49.68 533.52C55.06 533.52 60.22 532.31 65.02 529.94C65.66 529.63 66.42 529.75 66.92 530.25L75.43 538.77C75.8 539.13 75.96 539.63 75.9 540.14C75.84 540.65 75.55 541.1 75.11 541.36C67.44 545.96 58.64 548.38 49.67 548.38L49.69 548.38ZM27.8 539.58C34.5 543.19 42.03 545.09 49.69 545.09C57.35 545.09 64.88 543.19 71.58 539.58L65.42 533.42C60.46 535.68 55.18 536.82 49.69 536.82C44.21 536.82 38.92 535.68 33.96 533.42L27.8 539.58Z" fill="#FFFFFF" fill-opacity="1.000000" fill-rule="nonzero"/>
		<path id="Vector" d="M90.8 525.07C90.36 525.07 89.94 524.9 89.63 524.59L81.12 516.08C80.62 515.58 80.49 514.81 80.81 514.18C83.18 509.38 84.39 504.22 84.39 498.84C84.39 493.46 83.18 488.3 80.81 483.5C80.49 482.86 80.62 482.09 81.12 481.6L89.63 473.09C90 472.72 90.5 472.56 91.01 472.62C91.52 472.68 91.96 472.97 92.22 473.41C96.82 481.08 99.25 489.88 99.25 498.85C99.25 507.82 96.82 516.62 92.22 524.29C91.96 524.73 91.52 525.02 91.01 525.08C90.93 525.08 90.87 525.08 90.8 525.08L90.8 525.07ZM84.27 514.56L90.43 520.72C94.05 514.02 95.94 506.49 95.94 498.83C95.94 491.17 94.05 483.64 90.43 476.94L84.27 483.1C86.53 488.06 87.68 493.34 87.68 498.83C87.68 504.31 86.53 509.6 84.27 514.56Z" fill="#FFFFFF" fill-opacity="1.000000" fill-rule="nonzero"/>
		<path id="Vector" d="M8.59 525.07C8.52 525.07 8.45 525.07 8.39 525.06C7.88 525 7.43 524.71 7.17 524.27C2.57 516.6 0.15 507.8 0.15 498.83C0.15 489.86 2.57 481.06 7.17 473.39C7.43 472.95 7.88 472.66 8.39 472.6C8.9 472.54 9.4 472.71 9.77 473.07L18.28 481.58C18.78 482.08 18.9 482.85 18.59 483.48C16.22 488.28 15.01 493.44 15.01 498.82C15.01 504.2 16.22 509.36 18.59 514.16C18.9 514.8 18.78 515.57 18.28 516.06L9.77 524.57C9.45 524.88 9.04 525.06 8.6 525.06L8.59 525.07ZM8.95 476.94C5.34 483.64 3.45 491.17 3.45 498.83C3.45 506.49 5.34 514.02 8.95 520.72L15.12 514.56C12.86 509.6 11.71 504.31 11.71 498.83C11.71 493.34 12.86 488.06 15.12 483.1L8.95 476.94Z" fill="#FFFFFF" fill-opacity="1.000000" fill-rule="nonzero"/>
		<path id="Vector" d="M49.69 460.85C28.75 460.85 11.7 477.89 11.7 498.84C11.7 519.79 28.74 536.83 49.69 536.83C70.65 536.83 87.69 519.79 87.69 498.84C87.69 477.89 70.65 460.85 49.69 460.85ZM71.07 486.36C72.87 489.44 73.97 492.8 74.32 496.37C74.33 496.52 74.27 496.65 74.14 496.73C71.43 498.39 68.99 500.43 66.89 502.82C66.79 502.93 66.64 502.97 66.5 502.92L61.81 501.39C61.67 501.35 61.58 501.23 61.56 501.09C61.03 497.21 59.82 493.49 57.97 490.03C57.91 489.91 57.92 489.76 58 489.65L60.9 485.65C60.98 485.56 61.09 485.5 61.21 485.5C61.24 485.5 61.26 485.5 61.29 485.5C64.39 486.18 67.58 486.41 70.74 486.15C70.89 486.14 71.02 486.21 71.09 486.34L71.07 486.36ZM59 501.74C59.01 501.85 58.98 501.95 58.92 502.02C56.45 504.87 53.31 507.15 49.84 508.6C49.75 508.64 49.65 508.64 49.56 508.6C46.09 507.14 42.95 504.86 40.48 502.02C40.42 501.95 40.39 501.85 40.4 501.74C40.88 497.98 42.05 494.37 43.88 491.04C43.93 490.95 44.01 490.89 44.11 490.87C45.95 490.48 47.82 490.28 49.7 490.28C51.59 490.28 53.46 490.48 55.29 490.87C55.4 490.89 55.48 490.95 55.53 491.04C57.35 494.37 58.52 497.98 59.01 501.74L59 501.74ZM58.44 475.91C58.44 475.91 58.56 475.81 58.69 475.81C58.73 475.81 58.78 475.81 58.83 475.84C62.66 477.36 66.09 479.85 68.75 483.05C68.89 483.21 68.84 483.37 68.8 483.43C68.78 483.49 68.69 483.65 68.47 483.65C66.11 483.68 63.76 483.41 61.48 482.87C61.38 482.85 61.3 482.79 61.25 482.71C60.03 480.7 59.05 478.53 58.34 476.28C58.28 476.09 58.4 475.95 58.45 475.91L58.44 475.91ZM44.44 474.66C47.88 473.92 51.52 473.92 54.96 474.66C55.1 474.69 55.21 474.8 55.24 474.93C55.98 478.02 57.18 480.98 58.79 483.72C58.86 483.84 58.85 484 58.77 484.12L55.89 488.1C55.8 488.21 55.66 488.28 55.52 488.24C51.71 487.47 47.68 487.47 43.88 488.24C43.74 488.28 43.59 488.21 43.51 488.1L40.63 484.12C40.54 484.01 40.53 483.84 40.61 483.72C42.22 480.98 43.42 478.02 44.16 474.93C44.19 474.8 44.3 474.69 44.44 474.66ZM30.65 483.05C33.31 479.84 36.73 477.35 40.57 475.84C40.62 475.82 40.67 475.81 40.71 475.81C40.85 475.81 40.93 475.88 40.96 475.91C41.01 475.96 41.13 476.09 41.06 476.28C40.36 478.54 39.38 480.7 38.16 482.71C38.11 482.79 38.03 482.85 37.93 482.87C35.65 483.41 33.3 483.68 30.94 483.65C30.72 483.65 30.62 483.49 30.6 483.43C30.57 483.37 30.52 483.21 30.66 483.05L30.65 483.05ZM28.32 486.36C28.39 486.25 28.51 486.17 28.65 486.17C28.65 486.17 28.67 486.17 28.68 486.17C31.85 486.42 35.04 486.2 38.13 485.52C38.28 485.49 38.42 485.54 38.5 485.66L41.41 489.66C41.49 489.77 41.5 489.93 41.44 490.04C39.59 493.5 38.38 497.22 37.85 501.1C37.83 501.23 37.73 501.35 37.6 501.4L32.9 502.93C32.77 502.97 32.61 502.93 32.52 502.83C30.42 500.44 27.98 498.4 25.26 496.74C25.15 496.66 25.08 496.53 25.09 496.38C25.44 492.81 26.53 489.44 28.34 486.37L28.32 486.36ZM29.46 512.01C29.4 512.2 29.22 512.25 29.15 512.26C29.07 512.26 28.91 512.26 28.79 512.09C26.58 508.6 25.26 504.56 25 500.42C24.99 500.21 25.13 500.11 25.19 500.08C25.25 500.05 25.42 499.97 25.59 500.1C27.51 501.46 29.26 503.07 30.79 504.85C30.85 504.92 30.89 505.01 30.87 505.12C30.69 507.46 30.21 509.78 29.45 512.02L29.46 512.01ZM39.74 521.51C36.5 520.08 33.63 517.99 31.24 515.31C31.15 515.2 31.11 515.05 31.17 514.92C32.38 511.99 33.15 508.89 33.46 505.73C33.47 505.58 33.57 505.46 33.71 505.42L38.35 503.91C38.35 503.91 38.42 503.89 38.46 503.89C38.57 503.89 38.66 503.93 38.73 504.01C41.34 506.93 44.59 509.3 48.16 510.87C48.3 510.93 48.38 511.06 48.38 511.21L48.38 516.09C48.38 516.23 48.3 516.37 48.16 516.42C45.25 517.68 42.54 519.38 40.12 521.45C40.01 521.54 39.86 521.56 39.73 521.5L39.74 521.51ZM56.12 522.54C56.11 522.61 56.05 522.78 55.85 522.83C51.83 523.85 47.58 523.85 43.56 522.83C43.37 522.78 43.3 522.61 43.29 522.54C43.28 522.47 43.26 522.3 43.44 522.17C45.33 520.76 47.39 519.58 49.57 518.68C49.66 518.64 49.76 518.64 49.85 518.68C52.01 519.58 54.08 520.76 55.98 522.17C56.15 522.29 56.14 522.47 56.13 522.54L56.12 522.54ZM68.18 515.32C65.79 518 62.92 520.08 59.68 521.51C59.54 521.57 59.39 521.54 59.29 521.46C56.87 519.39 54.17 517.69 51.24 516.43C51.11 516.37 51.03 516.24 51.03 516.1L51.03 511.22C51.03 511.07 51.11 510.93 51.24 510.88C54.81 509.31 58.08 506.94 60.67 504.02C60.75 503.94 60.84 503.9 60.95 503.9C60.99 503.9 61.02 503.9 61.06 503.92L65.7 505.43C65.84 505.47 65.94 505.6 65.95 505.74C66.25 508.9 67.02 511.99 68.24 514.93C68.29 515.06 68.27 515.21 68.17 515.32L68.18 515.32ZM70.61 512.1C70.5 512.28 70.32 512.28 70.26 512.27C70.19 512.27 70.02 512.21 69.95 512.02C69.2 509.78 68.72 507.46 68.52 505.12C68.52 505.02 68.54 504.92 68.61 504.85C70.14 503.07 71.88 501.47 73.81 500.1C73.88 500.05 73.96 500.03 74.02 500.03C74.1 500.03 74.16 500.06 74.21 500.08C74.27 500.11 74.41 500.21 74.39 500.42C74.13 504.56 72.82 508.6 70.6 512.09L70.61 512.1Z" fill="#FFFFFF" fill-opacity="1.000000" fill-rule="nonzero"/>
		<path id="Vector" d="M49.55 424.93C36.85 424.93 24.16 420.1 14.49 410.43C-4.84 391.1 -4.84 359.66 14.49 340.33C23.86 330.96 36.31 325.81 49.55 325.81C62.79 325.81 75.24 330.96 84.6 340.33C103.93 359.66 103.93 391.1 84.6 410.43C74.94 420.09 62.25 424.93 49.55 424.93ZM17.09 407.83C34.99 425.72 64.1 425.72 81.99 407.83C99.88 389.93 99.88 360.82 81.99 342.93C73.32 334.26 61.8 329.49 49.54 329.49C37.28 329.49 25.75 334.27 17.08 342.93C-0.81 360.82 -0.81 389.93 17.08 407.83L17.09 407.83Z" fill="#EBF29D" fill-opacity="1.000000" fill-rule="nonzero"/>
		<path id="Vector" d="M48.89 393.93C49.07 394.36 49.49 394.61 49.92 394.61C50.07 394.61 50.21 394.58 50.36 394.52C53.86 393.06 57.04 390.79 59.56 387.96C59.97 387.5 59.93 386.79 59.47 386.38C59.01 385.98 58.3 386.02 57.9 386.48C55.6 389.07 52.69 391.14 49.5 392.47C48.93 392.71 48.66 393.37 48.9 393.93L48.89 393.93Z" fill="#EBF29D" fill-opacity="1.000000" fill-rule="nonzero"/>
		<path id="Vector" d="M68.44 358.24L49.95 350.85C49.68 350.75 49.39 350.75 49.12 350.85L30.63 358.24C30.21 358.41 29.94 358.81 29.94 359.27L29.94 372.51C29.96 384.73 37.68 395.77 49.15 399.98C49.28 400.02 49.4 400.04 49.54 400.04C49.67 400.04 49.8 400.02 49.92 399.98C61.39 395.76 69.11 384.73 69.14 372.51L69.14 359.27C69.14 358.81 68.86 358.41 68.44 358.24ZM66.91 372.51C66.89 383.63 59.91 393.75 49.55 397.74C39.18 393.75 32.2 383.63 32.17 372.51L32.17 360.03L49.55 353.09L66.91 360.03L66.91 372.51Z" fill="#EBF29D" fill-opacity="1.000000" fill-rule="nonzero"/>
		<path id="Vector" d="M41.82 359.98C41.55 359.86 41.25 359.86 40.97 359.98L36.57 361.74C36.14 361.9 35.87 362.31 35.87 362.77L35.87 367.46C35.87 368.08 36.37 368.58 36.98 368.58C37.6 368.58 38.1 368.08 38.1 367.46L38.1 363.53L41.79 362.05C42.07 361.93 42.28 361.73 42.41 361.45C42.52 361.17 42.52 360.87 42.41 360.59C42.29 360.31 42.08 360.1 41.81 359.98L41.82 359.98Z" fill="#EBF29D" fill-opacity="1.000000" fill-rule="nonzero"/>
		<path id="Vector" d="M77.69 347.23C70.18 339.7 60.17 335.57 49.54 335.57C38.9 335.57 28.91 339.71 21.38 347.23C5.86 362.75 5.86 388.01 21.38 403.54C29.15 411.3 39.34 415.18 49.54 415.18C59.74 415.18 69.93 411.29 77.69 403.54C93.21 388.02 93.21 362.76 77.69 347.23ZM72.19 372.51C72.22 386.63 63.19 398.99 49.73 403.27C49.61 403.31 49.47 403.31 49.34 403.27C35.88 398.99 26.86 386.63 26.89 372.51L26.89 356.89C26.89 356.63 27.04 356.39 27.29 356.28L49.3 347.49C49.37 347.46 49.45 347.45 49.54 347.45C49.62 347.45 49.7 347.46 49.78 347.49L71.78 356.29C72.03 356.39 72.19 356.63 72.19 356.9L72.19 372.52L72.19 372.51Z" fill="#EBF29D" fill-opacity="1.000000" fill-rule="nonzero"/>
		<path id="Vector" d="M49.96 302.62C22.64 302.62 0.42 280.38 0.42 253.07C0.42 225.76 22.65 203.53 49.96 203.53C77.27 203.53 99.51 225.76 99.51 253.07C99.51 280.38 77.27 302.62 49.96 302.62ZM49.96 206.83C24.46 206.83 3.72 227.57 3.72 253.07C3.72 278.57 24.46 299.32 49.96 299.32C75.46 299.32 96.21 278.57 96.21 253.07C96.21 227.57 75.46 206.83 49.96 206.83Z" fill="#11F8A5" fill-opacity="1.000000" fill-rule="nonzero"/>
		<path id="Vector" d="M66.94 233.06L82.28 217.72L85.3 220.74L69.96 236.08L66.94 233.06Z" fill="#11F8A5" fill-opacity="1.000000" fill-rule="evenodd"/>
		<path id="Vector" d="M14.15 285.85L29.49 270.52L32.51 273.53L17.17 288.87L14.15 285.85Z" fill="#11F8A5" fill-opacity="1.000000" fill-rule="evenodd"/>
		<path id="Vector" d="M67.41 273.55L70.43 270.53L85.77 285.87L82.75 288.89L67.41 273.55Z" fill="#11F8A5" fill-opacity="1.000000" fill-rule="evenodd"/>
		<path id="Vector" d="M14.15 220.28L17.16 217.26L32.5 232.59L29.48 235.61L14.15 220.28Z" fill="#11F8A5" fill-opacity="1.000000" fill-rule="evenodd"/>
		<path id="Vector" d="M62.05 254.4C63.05 253.4 63.05 251.79 62.05 250.8L59.92 248.69C58.92 247.69 57.31 247.69 56.32 248.69L55.18 249.83L53.85 248.51C52.86 247.51 51.24 247.51 50.25 248.51L49.11 249.67L47.79 248.34C46.79 247.34 45.17 247.34 44.18 248.34L37.16 255.36C37.11 255.41 37.11 255.5 37.16 255.56C38.1 256.5 39.63 256.5 40.57 255.56L45.1 251.03C45.59 250.54 46.38 250.54 46.87 251.03L47.2 251.36C47.27 251.43 47.27 251.52 47.2 251.58L43.42 255.36C43.37 255.41 43.37 255.5 43.42 255.56C44.36 256.5 45.89 256.5 46.84 255.56L51.18 251.22C51.67 250.73 52.46 250.73 52.95 251.22L53.28 251.55C53.33 251.6 53.33 251.69 53.28 251.75L49.64 255.39C49.59 255.44 49.59 255.53 49.64 255.59C50.58 256.53 52.11 256.53 53.05 255.59L57.25 251.4C57.74 250.91 58.53 250.91 59.02 251.4L59.74 252.11C60.02 252.39 60.02 252.86 59.74 253.14L59.62 253.26C59.34 253.54 58.87 253.54 58.59 253.26L57.66 252.33C57.61 252.28 57.53 252.28 57.47 252.33L55.86 253.94C55.81 253.99 55.81 254.07 55.86 254.13L57.31 255.58C58.31 256.58 59.92 256.58 60.91 255.58L62.06 254.43L62.05 254.4Z" fill="#11F8A5" fill-opacity="1.000000" fill-rule="nonzero"/>
		<path id="Vector" d="M49.96 215.08C28.98 215.08 11.97 232.09 11.97 253.07C11.97 274.05 28.98 291.06 49.96 291.06C70.95 291.06 87.95 274.05 87.95 253.07C87.95 232.09 70.95 215.08 49.96 215.08ZM51.51 226.81C57.61 227.16 63.15 229.6 67.44 233.41L61.95 238.89C59.09 236.47 55.48 234.9 51.51 234.56L51.51 226.81ZM48.42 226.81L48.42 234.56C44.46 234.89 40.85 236.47 37.98 238.89L32.5 233.41C36.79 229.6 42.32 227.16 48.42 226.81ZM30.31 235.59L35.8 241.08C33.37 243.94 31.8 247.55 31.47 251.52L23.71 251.52C24.07 245.42 26.5 239.88 30.31 235.59ZM23.71 254.61L31.47 254.61C31.79 258.58 33.37 262.19 35.8 265.05L30.31 270.54C26.5 266.25 24.07 260.71 23.71 254.61ZM48.42 279.32C42.32 278.97 36.79 276.53 32.5 272.72L37.98 267.24C40.85 269.66 44.46 271.23 48.42 271.57L48.42 279.32ZM34 253.06C34 244.24 41.15 237.09 49.96 237.09C58.78 237.09 65.93 244.24 65.93 253.06C65.93 261.88 58.78 269.03 49.96 269.03C41.15 269.03 34 261.88 34 253.06ZM51.51 279.32L51.51 271.57C55.48 271.24 59.09 269.66 61.95 267.24L67.44 272.72C63.15 276.53 57.61 278.97 51.51 279.32ZM69.62 270.54L64.14 265.05C66.56 262.19 68.14 258.58 68.47 254.61L76.22 254.61C75.87 260.71 73.43 266.25 69.62 270.54ZM68.47 251.52C68.15 247.55 66.56 243.94 64.14 241.08L69.62 235.59C73.43 239.88 75.87 245.42 76.22 251.52L68.47 251.52Z" fill="#11F8A5" fill-opacity="1.000000" fill-rule="nonzero"/>
		<path id="Vector" d="M15.05 158.25C-4.44 138.77 -4.44 107.06 15.05 87.57C34.54 68.08 66.25 68.08 85.74 87.57C105.23 107.06 105.23 138.77 85.74 158.25C66.25 177.74 34.54 177.74 15.05 158.25ZM83.39 89.92C65.19 71.73 35.6 71.73 17.41 89.92C-0.78 108.11 -0.78 137.71 17.41 155.89C35.6 174.09 65.2 174.09 83.39 155.89C101.58 137.7 101.58 108.11 83.39 89.92Z" fill="#FFFFFF" fill-opacity="1.000000" fill-rule="nonzero"/>
		<path id="Vector" d="M83.93 112.31C83.75 112.13 83.61 111.91 83.53 111.66C81.8 106.55 78.98 102.01 75.14 98.17C71.3 94.34 66.76 91.51 61.64 89.78C60.97 89.54 60.51 88.91 60.51 88.2L60.51 76.05C60.51 75.54 60.75 75.05 61.15 74.74C61.56 74.42 62.08 74.31 62.58 74.43C71.33 76.62 79.34 81.16 85.74 87.57C92.13 93.97 96.67 101.98 98.86 110.73C98.99 111.22 98.87 111.75 98.56 112.16C98.24 112.56 97.76 112.8 97.25 112.8L85.1 112.8C84.64 112.8 84.23 112.61 83.92 112.3L83.93 112.31ZM77.49 95.81C81.41 99.73 84.36 104.32 86.28 109.46L95.07 109.46C92.86 102.11 88.85 95.39 83.38 89.92C77.92 84.46 71.2 80.44 63.85 78.24L63.85 87.03C68.99 88.95 73.58 91.9 77.5 95.82L77.49 95.81Z" fill="#FFFFFF" fill-opacity="1.000000" fill-rule="nonzero"/>
		<path id="Vector" d="M15.05 158.25C8.65 151.86 4.11 143.85 1.92 135.1C1.8 134.6 1.91 134.07 2.22 133.67C2.54 133.26 3.02 133.03 3.53 133.03L15.68 133.03C16.4 133.03 17.03 133.49 17.26 134.16C18.99 139.28 21.82 143.82 25.65 147.66C29.49 151.49 34.03 154.32 39.15 156.05C39.83 156.28 40.28 156.91 40.28 157.63L40.28 169.78C40.28 170.29 40.04 170.77 39.64 171.09C39.23 171.41 38.71 171.52 38.21 171.39C29.46 169.2 21.46 164.66 15.05 158.26L15.05 158.25ZM5.72 136.36C7.93 143.71 11.94 150.43 17.41 155.9C22.87 161.36 29.59 165.38 36.95 167.59L36.95 158.8C31.8 156.88 27.21 153.93 23.3 150.01C19.38 146.1 16.43 141.51 14.51 136.36L5.72 136.36L5.72 136.36Z" fill="#FFFFFF" fill-opacity="1.000000" fill-rule="nonzero"/>
		<path id="Vector" d="M61 170.95C60.69 170.64 60.51 170.21 60.51 169.77L60.51 157.62C60.51 156.9 60.97 156.27 61.64 156.04C66.76 154.31 71.3 151.49 75.14 147.65C78.98 143.81 81.8 139.27 83.53 134.15C83.76 133.48 84.39 133.02 85.11 133.02L97.26 133.02C97.77 133.02 98.25 133.26 98.57 133.66C98.89 134.06 99 134.59 98.87 135.09C96.68 143.84 92.14 151.84 85.74 158.25C79.34 164.65 71.33 169.19 62.58 171.38C62.08 171.5 61.56 171.39 61.15 171.08C61.1 171.03 61.05 170.99 61 170.94L61 170.95ZM63.84 158.8L63.84 167.58C71.2 165.37 77.92 161.36 83.38 155.89C88.85 150.43 92.86 143.71 95.07 136.35L86.28 136.35C84.37 141.5 81.41 146.08 77.49 150C73.58 153.92 68.99 156.88 63.84 158.8Z" fill="#FFFFFF" fill-opacity="1.000000" fill-rule="nonzero"/>
		<path id="Vector" d="M2.36 112.31C2.31 112.26 2.26 112.21 2.22 112.16C1.9 111.75 1.8 111.22 1.92 110.73C4.11 101.98 8.65 93.97 15.05 87.57C21.46 81.17 29.46 76.62 38.21 74.43C38.71 74.31 39.23 74.42 39.64 74.74C40.04 75.05 40.28 75.54 40.28 76.05L40.28 88.2C40.28 88.91 39.82 89.55 39.14 89.78C34.03 91.51 29.49 94.33 25.65 98.17C21.82 102 18.99 106.55 17.26 111.66C17.03 112.34 16.39 112.8 15.68 112.8L3.53 112.8C3.09 112.8 2.66 112.62 2.35 112.31L2.36 112.31ZM36.95 78.24C29.59 80.45 22.87 84.46 17.4 89.93C11.94 95.39 7.93 102.11 5.72 109.47L14.5 109.47C16.42 104.32 19.38 99.74 23.3 95.82C27.21 91.9 31.8 88.95 36.95 87.03L36.95 78.24Z" fill="#FFFFFF" fill-opacity="1.000000" fill-rule="nonzero"/>
		<path id="Vector" d="M77.5 95.81C62.56 80.87 38.24 80.87 23.3 95.81C8.36 110.76 8.36 135.07 23.3 150.01C38.24 164.95 62.55 164.95 77.5 150.01C92.44 135.06 92.44 110.75 77.5 95.81Z" fill="#FFFFFF" fill-opacity="1.000000" fill-rule="nonzero"/>
		<path id="Vector" d="M36.69 136.77L64.22 136.59C65.38 136.58 66.32 137.51 66.33 138.67L66.34 139.66C66.34 140.82 65.41 141.76 64.25 141.77L36.72 141.95C35.56 141.96 34.62 141.03 34.61 139.87L34.6 138.88C34.59 137.72 35.53 136.78 36.69 136.77Z" fill="#191D0A" fill-opacity="1.000000" fill-rule="evenodd"/>
		<path id="Vector" d="M40.44 119.97C40.14 119.97 39.84 119.91 39.56 119.77L37.41 118.74C36.48 118.28 36.05 117.18 36.44 116.21L37.43 113.76C37.73 113.01 38.45 112.52 39.25 112.52C39.6 112.52 39.94 112.6 40.24 112.78L42.8 114.24C43.28 114.51 43.63 114.98 43.75 115.52C43.87 116.06 43.77 116.63 43.45 117.08L42.05 119.11C41.68 119.65 41.08 119.97 40.43 119.97L40.44 119.97Z" fill="#191D0A" fill-opacity="1.000000" fill-rule="nonzero"/>
		<path id="Vector" d="M60.26 119.84C59.61 119.84 59 119.53 58.63 119.01L57.24 117.05C56.92 116.6 56.81 116.03 56.92 115.49C57.03 114.95 57.38 114.47 57.85 114.19L60.49 112.64C60.79 112.47 61.13 112.37 61.48 112.37C62.29 112.37 63.01 112.84 63.32 113.59L64.32 115.97C64.72 116.93 64.3 118.04 63.38 118.51L61.13 119.63C60.86 119.76 60.56 119.84 60.26 119.84L60.26 119.84Z" fill="#191D0A" fill-opacity="1.000000" fill-rule="nonzero"/>
		<path id="Vector" d="M38.28 134.93C37.07 134.94 35.98 134.18 35.57 133.04L30.98 120.4C30.68 120.55 30.37 120.65 30.05 120.74C29.68 120.83 29.3 120.88 28.91 120.88C28.69 120.88 28.47 120.87 28.26 120.84C25.87 120.54 24.05 118.48 24.04 116.07C24.02 113.39 26.18 111.2 28.85 111.18C31.53 111.17 33.72 113.33 33.73 116C33.73 116.62 33.63 117.21 33.41 117.76C33.29 118.07 33.14 118.36 32.97 118.63L41.71 122.86L48.39 113.18C48.11 113.06 47.84 112.91 47.58 112.73C47.1 112.41 46.68 112 46.34 111.52C45.76 110.71 45.45 109.74 45.44 108.75C45.42 106.08 47.58 103.89 50.26 103.87C50.38 103.87 50.5 103.87 50.62 103.88C53.01 104.04 54.95 105.96 55.12 108.35C55.2 109.48 54.9 110.57 54.26 111.49C53.92 111.98 53.5 112.39 53.02 112.72C52.77 112.89 52.5 113.04 52.22 113.16L59.02 122.74L67.61 118.44C67.45 118.13 67.33 117.81 67.23 117.47C67.12 117.07 67.06 116.64 67.06 116.21C67.06 116.01 67.06 115.82 67.08 115.63C67.36 113.19 69.42 111.35 71.87 111.33C74.54 111.31 76.73 113.47 76.74 116.15C76.76 118.7 74.78 120.84 72.24 121.02L71.93 121.02C71.44 121.02 70.96 120.96 70.49 120.82C70.18 120.72 69.89 120.6 69.61 120.45L65.3 132.85C64.91 133.99 63.83 134.75 62.62 134.77L38.28 134.93L38.28 134.93Z" fill="#191D0A" fill-opacity="1.000000" fill-rule="nonzero"/>
		<path id="Vector" d="" fill="#EBF29D" fill-opacity="1.000000" fill-rule="nonzero"/>
		<path id="Vector" d="M99.98 2.04L99.98 121.63C99.98 122.62 99.18 123.41 98.2 123.41C97.22 123.41 96.42 122.61 96.42 121.63L96.42 2.04C96.42 1.05 97.22 0.26 98.2 0.26C99.18 0.26 99.98 1.06 99.98 2.04Z" fill="#FFFFFF" fill-opacity="1.000000" fill-rule="nonzero"/>
		<path id="Vector" d="" fill="#EBF29D" fill-opacity="1.000000" fill-rule="nonzero"/>
		<path id="Vector" d="M4.43 1.77L4.43 121.37C4.43 122.36 3.63 123.15 2.65 123.15C1.68 123.15 0.87 122.35 0.87 121.37L0.87 1.77C0.87 0.79 1.68 0 2.65 0C3.63 0 4.43 0.8 4.43 1.77Z" fill="#FFFFFF" fill-opacity="1.000000" fill-rule="nonzero"/>
	</g>
</svg>
