<svg xmlns="http://www.w3.org/2000/svg" viewBox="0 0 1334.22 99.4346" width="1334.220215" height="99.434570"><g xmlns="http://www.w3.org/2000/svg" transform="matrix(0 1 -1 0 1334.22 -0)"><desc>			Created with Pixso.	</desc><defs /><g opacity="0.200000"><path id="Vector" d="M49.73 1334.22C37.03 1334.22 24.34 1329.39 14.67 1319.72C-4.66 1300.39 -4.66 1268.94 14.67 1249.62C24.04 1240.25 36.49 1235.1 49.73 1235.1C62.97 1235.1 75.42 1240.25 84.78 1249.62C104.11 1268.94 104.11 1300.39 84.78 1319.72C75.12 1329.38 62.43 1334.22 49.73 1334.22ZM17.27 1317.12C35.17 1335.01 64.28 1335.01 82.17 1317.12C100.06 1299.23 100.06 1270.11 82.17 1252.22C73.5 1243.55 61.98 1238.78 49.72 1238.78C37.46 1238.78 25.93 1243.56 17.26 1252.22C-0.63 1270.11 -0.63 1299.23 17.26 1317.12L17.27 1317.12Z" fill="#EBF29D" fill-opacity="1.000000" fill-rule="nonzero" /><path id="Vector" d="M49.07 1303.21C49.25 1303.64 49.67 1303.89 50.1 1303.89C50.25 1303.89 50.39 1303.86 50.54 1303.81C54.04 1302.34 57.22 1300.06 59.74 1297.24C60.15 1296.78 60.11 1296.06 59.65 1295.67C59.19 1295.26 58.48 1295.3 58.08 1295.76C55.78 1298.35 52.87 1300.42 49.68 1301.76C49.11 1302 48.84 1302.65 49.08 1303.21L49.07 1303.21Z" fill="#EBF29D" fill-opacity="1.000000" fill-rule="nonzero" /><path id="Vector" d="M68.62 1267.53L50.13 1260.14C49.86 1260.04 49.57 1260.04 49.3 1260.14L30.81 1267.53C30.39 1267.69 30.12 1268.1 30.12 1268.56L30.12 1281.8C30.14 1294.02 37.86 1305.06 49.33 1309.27C49.46 1309.31 49.58 1309.32 49.72 1309.32C49.85 1309.32 49.98 1309.31 50.1 1309.27C61.57 1305.06 69.29 1294.02 69.31 1281.8L69.31 1268.56C69.31 1268.1 69.04 1267.69 68.62 1267.53ZM67.09 1281.8C67.07 1292.92 60.09 1303.05 49.73 1307.03C39.36 1303.05 32.37 1292.92 32.35 1281.8L32.35 1269.31L49.73 1262.38L67.09 1269.31L67.09 1281.8Z" fill="#EBF29D" fill-opacity="1.000000" fill-rule="nonzero" /><path id="Vector" d="M42 1269.27C41.73 1269.16 41.43 1269.16 41.15 1269.27L36.75 1271.03C36.32 1271.19 36.05 1271.6 36.05 1272.06L36.05 1276.75C36.05 1277.37 36.55 1277.87 37.16 1277.87C37.78 1277.87 38.28 1277.37 38.28 1276.75L38.28 1272.81L41.97 1271.34C42.25 1271.23 42.46 1271.02 42.59 1270.74C42.7 1270.47 42.7 1270.17 42.59 1269.88C42.47 1269.6 42.26 1269.4 41.99 1269.27L42 1269.27Z" fill="#EBF29D" fill-opacity="1.000000" fill-rule="nonzero" /><path id="Vector" d="M77.88 1256.52C70.37 1248.99 60.36 1244.86 49.73 1244.86C39.09 1244.86 29.1 1249 21.57 1256.52C6.05 1272.04 6.05 1297.3 21.57 1312.83C29.34 1320.6 39.53 1324.47 49.73 1324.47C59.93 1324.47 70.12 1320.58 77.88 1312.83C93.4 1297.31 93.4 1272.05 77.88 1256.52ZM72.38 1281.8C72.41 1295.93 63.38 1308.28 49.93 1312.56C49.8 1312.6 49.66 1312.6 49.53 1312.56C36.07 1308.28 27.05 1295.93 27.08 1281.8L27.08 1266.18C27.08 1265.92 27.23 1265.68 27.48 1265.57L49.49 1256.78C49.56 1256.75 49.64 1256.74 49.73 1256.74C49.81 1256.74 49.89 1256.75 49.97 1256.78L71.97 1265.59C72.22 1265.68 72.38 1265.92 72.38 1266.18L72.38 1281.81L72.38 1281.8Z" fill="#EBF29D" fill-opacity="1.000000" fill-rule="nonzero" /><path id="Vector" d="M49.73 1207.61C22.4 1207.61 0.18 1185.38 0.18 1158.06C0.18 1130.75 22.42 1108.52 49.73 1108.52C77.04 1108.52 99.27 1130.75 99.27 1158.06C99.27 1185.38 77.04 1207.61 49.73 1207.61ZM49.73 1111.81C24.23 1111.81 3.48 1132.56 3.48 1158.06C3.48 1183.56 24.23 1204.31 49.73 1204.31C75.23 1204.31 95.97 1183.56 95.97 1158.06C95.97 1132.56 75.23 1111.81 49.73 1111.81Z" fill="#DA7DB5" fill-opacity="1.000000" fill-rule="nonzero" /><path id="Vector" d="M66.72 1138.05L82.06 1122.71L85.08 1125.73L69.74 1141.06L66.72 1138.05Z" fill="#DA7DB5" fill-opacity="1.000000" fill-rule="evenodd" /><path id="Vector" d="M13.92 1190.85L29.26 1175.51L32.28 1178.53L16.94 1193.87L13.92 1190.85Z" fill="#DA7DB5" fill-opacity="1.000000" fill-rule="evenodd" /><path id="Vector" d="M67.17 1178.54L70.19 1175.52L85.53 1190.86L82.51 1193.87L67.17 1178.54Z" fill="#DA7DB5" fill-opacity="1.000000" fill-rule="evenodd" /><path id="Vector" d="M13.92 1125.27L16.93 1122.26L32.27 1137.59L29.25 1140.6L13.92 1125.27Z" fill="#DA7DB5" fill-opacity="1.000000" fill-rule="evenodd" /><path id="Vector" d="M61.81 1159.4C62.81 1158.4 62.81 1156.78 61.81 1155.8L59.69 1153.68C58.69 1152.68 57.08 1152.68 56.09 1153.68L54.94 1154.82L53.62 1153.51C52.62 1152.51 51.01 1152.51 50.02 1153.51L48.87 1154.66L47.55 1153.32C46.55 1152.32 44.94 1152.32 43.95 1153.32L36.92 1160.35C36.87 1160.41 36.87 1160.49 36.92 1160.55C37.86 1161.49 39.39 1161.49 40.34 1160.55L44.87 1156.02C45.36 1155.54 46.15 1155.54 46.64 1156.02L46.97 1156.36C47.03 1156.42 47.03 1156.51 46.97 1156.57L43.19 1160.35C43.14 1160.41 43.14 1160.49 43.19 1160.55C44.13 1161.49 45.66 1161.49 46.6 1160.55L50.95 1156.21C51.43 1155.72 52.23 1155.72 52.71 1156.21L53.05 1156.54C53.1 1156.6 53.1 1156.68 53.05 1156.74L49.4 1160.39C49.35 1160.43 49.35 1160.52 49.4 1160.57C50.34 1161.52 51.87 1161.52 52.82 1160.57L57.01 1156.39C57.5 1155.9 58.29 1155.9 58.78 1156.39L59.5 1157.11C59.78 1157.39 59.78 1157.86 59.5 1158.14L59.39 1158.25C59.11 1158.53 58.64 1158.53 58.36 1158.25L57.43 1157.32C57.38 1157.27 57.29 1157.27 57.23 1157.32L55.63 1158.93C55.58 1158.98 55.58 1159.06 55.63 1159.13L57.08 1160.56C58.08 1161.56 59.69 1161.56 60.68 1160.56L61.82 1159.43L61.81 1159.4Z" fill="#DA7DB5" fill-opacity="1.000000" fill-rule="nonzero" /><path id="Vector" d="M49.73 1120.06C28.74 1120.06 11.74 1137.07 11.74 1158.06C11.74 1179.05 28.74 1196.06 49.73 1196.06C70.71 1196.06 87.72 1179.05 87.72 1158.06C87.72 1137.07 70.71 1120.06 49.73 1120.06ZM51.28 1131.8C57.38 1132.16 62.92 1134.59 67.2 1138.4L61.72 1143.89C58.86 1141.46 55.25 1139.89 51.28 1139.56L51.28 1131.8ZM48.19 1131.8L48.19 1139.56C44.22 1139.88 40.61 1141.46 37.75 1143.89L32.26 1138.4C36.55 1134.59 42.09 1132.16 48.19 1131.8ZM30.08 1140.59L35.56 1146.06C33.14 1148.93 31.57 1152.55 31.23 1156.51L23.48 1156.51C23.83 1150.41 26.27 1144.88 30.08 1140.59ZM23.48 1159.6L31.23 1159.6C31.56 1163.56 33.14 1167.18 35.56 1170.04L30.08 1175.53C26.27 1171.24 23.83 1165.69 23.48 1159.6ZM48.19 1184.31C42.09 1183.96 36.55 1181.53 32.26 1177.72L37.75 1172.23C40.61 1174.66 44.22 1176.23 48.19 1176.56L48.19 1184.31ZM33.76 1158.05C33.76 1149.24 40.91 1142.09 49.73 1142.09C58.54 1142.09 65.7 1149.24 65.7 1158.05C65.7 1166.87 58.54 1174.02 49.73 1174.02C40.91 1174.02 33.76 1166.87 33.76 1158.05ZM51.28 1184.31L51.28 1176.56C55.25 1176.24 58.86 1174.66 61.72 1172.23L67.2 1177.72C62.92 1181.53 57.38 1183.96 51.28 1184.31ZM69.39 1175.53L63.91 1170.04C66.33 1167.18 67.9 1163.56 68.24 1159.6L75.99 1159.6C75.64 1165.69 73.2 1171.24 69.39 1175.53ZM68.24 1156.51C67.91 1152.55 66.33 1148.93 63.91 1146.06L69.39 1140.59C73.2 1144.88 75.64 1150.41 75.99 1156.51L68.24 1156.51Z" fill="#DA7DB5" fill-opacity="1.000000" fill-rule="nonzero" /><path id="Vector" d="M49.87 1084.15C22.55 1084.15 0.33 1061.92 0.33 1034.61C0.33 1007.3 22.56 985.06 49.87 985.06C77.18 985.06 99.42 1007.3 99.42 1034.61C99.42 1061.92 77.18 1084.15 49.87 1084.15ZM49.87 988.36C24.37 988.36 3.63 1009.11 3.63 1034.61C3.63 1060.11 24.37 1080.85 49.87 1080.85C75.37 1080.85 96.12 1060.11 96.12 1034.61C96.12 1009.11 75.37 988.36 49.87 988.36Z" fill="#EBF29D" fill-opacity="1.000000" fill-rule="nonzero" /><path id="Vector" d="M65.95 1003.67C65.7 1003.67 65.45 1003.62 65.22 1003.51C60.42 1001.13 55.26 999.92 49.88 999.92C44.49 999.92 39.33 1001.13 34.53 1003.51C33.9 1003.82 33.14 1003.69 32.64 1003.19L24.12 994.68C23.76 994.31 23.59 993.81 23.66 993.3C23.72 992.79 24.01 992.34 24.45 992.08C32.12 987.48 40.91 985.06 49.89 985.06C58.86 985.06 67.65 987.49 75.32 992.08C75.76 992.34 76.05 992.79 76.12 993.3C76.18 993.81 76 994.31 75.65 994.68L67.13 1003.19C66.81 1003.51 66.39 1003.67 65.96 1003.67L65.95 1003.67ZM49.88 996.62C55.36 996.62 60.65 997.77 65.6 1000.03L71.76 993.86C65.06 990.25 57.54 988.36 49.88 988.36C42.21 988.36 34.69 990.25 27.99 993.86L34.15 1000.03C39.1 997.77 44.39 996.62 49.88 996.62Z" fill="#EBF29D" fill-opacity="1.000000" fill-rule="nonzero" /><path id="Vector" d="M49.87 1084.15C40.9 1084.15 32.11 1081.72 24.43 1077.13C24 1076.87 23.71 1076.42 23.64 1075.91C23.58 1075.4 23.76 1074.9 24.11 1074.54L32.63 1066.02C33.13 1065.52 33.9 1065.4 34.52 1065.71C39.32 1068.07 44.48 1069.29 49.86 1069.29C55.24 1069.29 60.41 1068.07 65.21 1065.71C65.84 1065.4 66.6 1065.52 67.1 1066.02L75.61 1074.54C75.98 1074.9 76.15 1075.4 76.08 1075.91C76.02 1076.42 75.73 1076.87 75.29 1077.13C67.62 1081.73 58.83 1084.15 49.85 1084.15L49.87 1084.15ZM27.98 1075.35C34.69 1078.96 42.21 1080.85 49.87 1080.85C57.53 1080.85 65.06 1078.96 71.76 1075.35L65.6 1069.18C60.65 1071.43 55.36 1072.59 49.87 1072.59C44.39 1072.59 39.1 1071.43 34.15 1069.18L27.98 1075.35Z" fill="#EBF29D" fill-opacity="1.000000" fill-rule="nonzero" /><path id="Vector" d="M90.98 1060.85C90.54 1060.85 90.12 1060.68 89.81 1060.37L81.3 1051.85C80.8 1051.35 80.67 1050.57 80.99 1049.96C83.36 1045.16 84.57 1040 84.57 1034.62C84.57 1029.24 83.36 1024.06 80.99 1019.28C80.67 1018.64 80.8 1017.87 81.3 1017.38L89.81 1008.87C90.18 1008.5 90.68 1008.34 91.19 1008.4C91.7 1008.46 92.14 1008.75 92.4 1009.19C97 1016.86 99.43 1025.66 99.43 1034.63C99.43 1043.6 97 1052.4 92.4 1060.06C92.14 1060.5 91.7 1060.8 91.19 1060.86C91.11 1060.86 91.05 1060.86 90.98 1060.86L90.98 1060.85ZM84.45 1050.32L90.61 1056.5C94.23 1049.79 96.12 1042.27 96.12 1034.61C96.12 1026.94 94.23 1019.42 90.61 1012.72L84.45 1018.88C86.71 1023.83 87.86 1029.12 87.86 1034.61C87.86 1040.09 86.71 1045.38 84.45 1050.32Z" fill="#EBF29D" fill-opacity="1.000000" fill-rule="nonzero" /><path id="Vector" d="M8.77 1060.85C8.7 1060.85 8.63 1060.85 8.57 1060.84C8.06 1060.77 7.61 1060.48 7.35 1060.05C2.75 1052.38 0.33 1043.57 0.33 1034.61C0.33 1025.64 2.75 1016.84 7.35 1009.17C7.61 1008.73 8.06 1008.44 8.57 1008.38C9.08 1008.32 9.58 1008.49 9.94 1008.85L18.46 1017.36C18.96 1017.86 19.08 1018.63 18.77 1019.25C16.4 1024.05 15.19 1029.22 15.19 1034.6C15.19 1039.98 16.4 1045.14 18.77 1049.93C19.08 1050.56 18.96 1051.34 18.46 1051.82L9.94 1060.35C9.63 1060.66 9.22 1060.84 8.78 1060.84L8.77 1060.85ZM9.13 1012.72C5.52 1019.42 3.63 1026.94 3.63 1034.61C3.63 1042.27 5.52 1049.79 9.13 1056.5L15.29 1050.32C13.04 1045.38 11.89 1040.09 11.89 1034.61C11.89 1029.12 13.04 1023.83 15.29 1018.88L9.13 1012.72Z" fill="#EBF29D" fill-opacity="1.000000" fill-rule="nonzero" /><path id="Vector" d="M49.87 996.61C28.93 996.61 11.88 1013.66 11.88 1034.61C11.88 1055.56 28.92 1072.6 49.87 1072.6C70.83 1072.6 87.86 1055.56 87.86 1034.61C87.86 1013.66 70.83 996.61 49.87 996.61ZM71.25 1022.13C73.05 1025.21 74.15 1028.56 74.5 1032.14C74.51 1032.29 74.45 1032.42 74.32 1032.49C71.61 1034.16 69.17 1036.19 67.07 1038.57C66.97 1038.69 66.82 1038.74 66.68 1038.68L61.99 1037.16C61.85 1037.12 61.76 1037 61.74 1036.86C61.21 1032.97 60 1029.26 58.15 1025.8C58.09 1025.68 58.1 1025.53 58.18 1025.42L61.08 1021.42C61.16 1021.33 61.27 1021.26 61.39 1021.26C61.42 1021.26 61.44 1021.26 61.47 1021.26C64.57 1021.95 67.76 1022.18 70.92 1021.92C71.07 1021.91 71.2 1021.98 71.27 1022.11L71.25 1022.13ZM59.18 1037.51C59.19 1037.62 59.16 1037.72 59.1 1037.79C56.63 1040.63 53.48 1042.91 50.02 1044.37C49.93 1044.41 49.83 1044.41 49.74 1044.37C46.27 1042.9 43.13 1040.62 40.66 1037.79C40.6 1037.72 40.57 1037.62 40.58 1037.51C41.06 1033.74 42.23 1030.14 44.05 1026.81C44.11 1026.72 44.19 1026.66 44.29 1026.63C46.13 1026.25 48 1026.05 49.88 1026.05C51.77 1026.05 53.64 1026.25 55.47 1026.63C55.58 1026.66 55.66 1026.72 55.71 1026.81C57.53 1030.14 58.7 1033.74 59.19 1037.51L59.18 1037.51ZM58.62 1011.68C58.62 1011.68 58.74 1011.57 58.87 1011.57C58.91 1011.57 58.96 1011.57 59.01 1011.6C62.84 1013.12 66.27 1015.62 68.93 1018.82C69.07 1018.97 69.01 1019.14 68.98 1019.2C68.96 1019.25 68.87 1019.42 68.65 1019.42C66.29 1019.45 63.94 1019.18 61.66 1018.64C61.56 1018.62 61.48 1018.56 61.43 1018.47C60.21 1016.47 59.23 1014.3 58.52 1012.05C58.46 1011.85 58.57 1011.72 58.63 1011.68L58.62 1011.68ZM44.62 1010.43C48.06 1009.69 51.69 1009.69 55.14 1010.43C55.28 1010.46 55.39 1010.56 55.42 1010.7C56.16 1013.79 57.36 1016.75 58.97 1019.48C59.04 1019.61 59.03 1019.76 58.95 1019.89L56.07 1023.87C55.98 1023.98 55.84 1024.04 55.7 1024.01C51.89 1023.24 47.86 1023.24 44.05 1024.01C43.92 1024.04 43.77 1023.98 43.69 1023.87L40.81 1019.89C40.72 1019.78 40.71 1019.61 40.79 1019.48C42.4 1016.75 43.6 1013.79 44.34 1010.7C44.37 1010.56 44.48 1010.46 44.62 1010.43ZM30.83 1018.82C33.49 1015.61 36.91 1013.11 40.74 1011.6C40.8 1011.58 40.85 1011.57 40.89 1011.57C41.03 1011.57 41.11 1011.65 41.14 1011.68C41.19 1011.73 41.31 1011.85 41.24 1012.05C40.54 1014.31 39.56 1016.47 38.34 1018.47C38.29 1018.56 38.21 1018.62 38.11 1018.64C35.83 1019.18 33.48 1019.45 31.12 1019.42C30.9 1019.42 30.8 1019.25 30.78 1019.2C30.75 1019.14 30.7 1018.97 30.84 1018.82L30.83 1018.82ZM28.5 1022.13C28.57 1022.01 28.69 1021.94 28.83 1021.94C28.83 1021.94 28.85 1021.94 28.86 1021.94C32.03 1022.19 35.22 1021.97 38.31 1021.28C38.45 1021.25 38.6 1021.31 38.68 1021.43L41.59 1025.43C41.67 1025.54 41.68 1025.69 41.62 1025.81C39.77 1029.27 38.56 1032.98 38.03 1036.87C38.01 1037 37.91 1037.12 37.78 1037.17L33.08 1038.69C32.95 1038.74 32.79 1038.69 32.7 1038.59C30.6 1036.21 28.16 1034.17 25.44 1032.51C25.33 1032.43 25.26 1032.3 25.27 1032.15C25.62 1028.57 26.71 1025.21 28.51 1022.14L28.5 1022.13ZM29.64 1047.77C29.58 1047.97 29.4 1048.01 29.33 1048.02C29.25 1048.02 29.09 1048.02 28.97 1047.86C26.76 1044.37 25.44 1040.32 25.18 1036.18C25.17 1035.98 25.31 1035.88 25.37 1035.85C25.43 1035.81 25.6 1035.74 25.77 1035.87C27.69 1037.23 29.44 1038.82 30.97 1040.61C31.03 1040.68 31.06 1040.78 31.05 1040.88C30.87 1043.23 30.39 1045.55 29.63 1047.79L29.64 1047.77ZM39.92 1057.28C36.67 1055.85 33.81 1053.76 31.42 1051.06C31.33 1050.97 31.29 1050.81 31.35 1050.68C32.56 1047.75 33.33 1044.66 33.64 1041.5C33.65 1041.35 33.75 1041.23 33.89 1041.18L38.53 1039.68C38.53 1039.68 38.6 1039.66 38.64 1039.66C38.75 1039.66 38.84 1039.69 38.91 1039.78C41.52 1042.69 44.77 1045.06 48.34 1046.64C48.48 1046.69 48.56 1046.82 48.56 1046.97L48.56 1051.85C48.56 1052 48.48 1052.14 48.34 1052.18C45.43 1053.44 42.72 1055.14 40.3 1057.22C40.19 1057.31 40.04 1057.32 39.91 1057.27L39.92 1057.28ZM56.3 1058.31C56.28 1058.38 56.23 1058.55 56.02 1058.6C52.01 1059.62 47.76 1059.62 43.74 1058.6C43.54 1058.55 43.48 1058.38 43.47 1058.31C43.46 1058.24 43.44 1058.06 43.62 1057.93C45.51 1056.53 47.57 1055.35 49.75 1054.44C49.84 1054.41 49.94 1054.41 50.03 1054.44C52.19 1055.35 54.26 1056.53 56.16 1057.93C56.33 1058.06 56.32 1058.24 56.31 1058.31L56.3 1058.31ZM68.36 1051.07C65.96 1053.77 63.1 1055.85 59.86 1057.28C59.72 1057.34 59.57 1057.31 59.47 1057.23C57.04 1055.15 54.35 1053.46 51.42 1052.19C51.29 1052.14 51.21 1052.01 51.21 1051.87L51.21 1046.98C51.21 1046.84 51.29 1046.69 51.42 1046.65C54.99 1045.07 58.26 1042.71 60.85 1039.79C60.93 1039.71 61.02 1039.67 61.12 1039.67C61.17 1039.67 61.2 1039.67 61.24 1039.68L65.88 1041.19C66.02 1041.24 66.12 1041.36 66.13 1041.51C66.43 1044.67 67.2 1047.75 68.42 1050.69C68.47 1050.81 68.45 1050.98 68.35 1051.07L68.36 1051.07ZM70.79 1047.87C70.68 1048.05 70.5 1048.05 70.44 1048.03C70.37 1048.03 70.2 1047.98 70.13 1047.79C69.38 1045.55 68.9 1043.23 68.7 1040.88C68.7 1040.79 68.72 1040.68 68.79 1040.61C70.32 1038.82 72.06 1037.24 73.99 1035.87C74.06 1035.81 74.14 1035.79 74.2 1035.79C74.28 1035.79 74.34 1035.82 74.39 1035.85C74.45 1035.88 74.59 1035.98 74.57 1036.18C74.31 1040.32 73 1044.37 70.78 1047.86L70.79 1047.87Z" fill="#EBF29D" fill-opacity="1.000000" fill-rule="nonzero" /><path id="Vector" d="M99.11 912.28C99.11 939.6 76.87 961.84 49.55 961.84C22.23 961.84 0 939.6 0 912.28C0 884.96 22.23 862.73 49.55 862.73C76.87 862.73 99.11 884.96 99.11 912.28ZM3.57 912.28C3.57 937.64 24.2 958.27 49.55 958.27C74.91 958.27 95.54 937.64 95.54 912.28C95.54 886.93 74.91 866.3 49.55 866.3C24.2 866.3 3.57 886.93 3.57 912.28Z" fill="#11F8A5" fill-opacity="1.000000" fill-rule="nonzero" /><path id="Vector" d="M99.11 791.14C99.11 792.13 98.31 792.92 97.33 792.92C96.35 792.92 95.55 792.12 95.55 791.14C95.55 765.79 74.92 745.16 49.56 745.16C24.21 745.16 3.58 765.79 3.58 791.14C3.58 792.13 2.78 792.92 1.8 792.92C0.82 792.92 0.02 792.12 0.02 791.14C0.02 763.82 22.25 741.59 49.57 741.59C76.9 741.59 99.13 763.82 99.13 791.14L99.11 791.14Z" fill="#11F8A5" fill-opacity="1.000000" fill-rule="nonzero" /><path id="Vector" d="M40.01 903.53C40.01 905.35 41.25 906.93 43.02 907.37L46.38 908.21L46.38 899.56L43.98 899.56C41.8 899.56 40.02 901.34 40.02 903.53L40.01 903.53Z" fill="#11F8A5" fill-opacity="1.000000" fill-rule="nonzero" /><path id="Vector" d="M52.72 925L55.12 925C57.3 925 59.08 923.22 59.08 921.03C59.08 919.21 57.85 917.63 56.08 917.19L52.71 916.35L52.71 925L52.72 925Z" fill="#11F8A5" fill-opacity="1.000000" fill-rule="nonzero" /><path id="Vector" d="M49.55 871.96C27.32 871.96 9.22 890.05 9.22 912.29C9.22 934.53 27.31 952.62 49.55 952.62C71.79 952.62 89.88 934.53 89.88 912.29C89.88 890.05 71.79 871.96 49.55 871.96ZM65.46 905.92L59.1 905.92L59.1 902.74C59.1 900.99 57.67 899.55 55.91 899.55L52.73 899.55L52.73 909.79L57.63 911.02C62.23 912.18 65.45 916.29 65.45 921.03C65.45 926.73 60.81 931.36 55.12 931.36L52.73 931.36L52.73 939.42L46.37 939.42L46.37 931.36L43.18 931.36C37.91 931.36 33.64 927.08 33.64 921.82L33.64 918.63L40 918.63L40 921.82C40 923.56 41.42 925 43.18 925L46.37 925L46.37 914.76L41.46 913.53C36.86 912.37 33.65 908.26 33.65 903.52C33.65 897.82 38.28 893.19 43.97 893.19L46.37 893.19L46.37 885.14L52.73 885.14L52.73 893.19L55.91 893.19C61.18 893.19 65.46 897.47 65.46 902.74L65.46 905.92Z" fill="#11F8A5" fill-opacity="1.000000" fill-rule="nonzero" /><path id="Vector" d="" fill="#11F8A5" fill-opacity="1.000000" fill-rule="nonzero" /><path id="Vector" d="M99.17 790.39L99.17 909.98C99.17 910.97 98.37 911.76 97.39 911.76C96.41 911.76 95.61 910.96 95.61 909.98L95.61 790.39C95.61 789.4 96.41 788.61 97.39 788.61C98.37 788.61 99.17 789.41 99.17 790.39Z" fill="#11F8A5" fill-opacity="1.000000" fill-rule="nonzero" /><path id="Vector" d="" fill="#11F8A5" fill-opacity="1.000000" fill-rule="nonzero" /><path id="Vector" d="M3.63 790.12L3.63 909.72C3.63 910.71 2.83 911.5 1.85 911.5C0.87 911.5 0.07 910.7 0.07 909.72L0.07 790.12C0.07 789.14 0.87 788.35 1.85 788.35C2.83 788.35 3.63 789.15 3.63 790.12Z" fill="#11F8A5" fill-opacity="1.000000" fill-rule="nonzero" /><path id="Vector" d="M49.73 711C37.03 711 24.34 706.17 14.67 696.5C-4.66 677.17 -4.66 645.72 14.67 626.39C24.04 617.03 36.49 611.87 49.73 611.87C62.97 611.87 75.42 617.03 84.78 626.39C104.11 645.72 104.11 677.17 84.78 696.5C75.12 706.16 62.43 711 49.73 711ZM17.27 693.89C35.17 711.79 64.28 711.79 82.17 693.89C100.06 676 100.06 646.89 82.17 629C73.5 620.33 61.98 615.56 49.72 615.56C37.46 615.56 25.93 620.34 17.26 629C-0.63 646.89 -0.63 676 17.26 693.89L17.27 693.89Z" fill="#EBF29D" fill-opacity="1.000000" fill-rule="nonzero" /><path id="Vector" d="M49.07 679.99C49.25 680.42 49.67 680.66 50.1 680.66C50.25 680.66 50.39 680.63 50.54 680.58C54.04 679.11 57.22 676.84 59.74 674.01C60.15 673.56 60.11 672.85 59.65 672.44C59.19 672.04 58.48 672.08 58.08 672.54C55.78 675.13 52.87 677.2 49.68 678.53C49.11 678.77 48.84 679.43 49.08 679.99L49.07 679.99Z" fill="#EBF29D" fill-opacity="1.000000" fill-rule="nonzero" /><path id="Vector" d="M68.62 644.31L50.13 636.92C49.86 636.81 49.57 636.81 49.3 636.92L30.81 644.31C30.39 644.47 30.12 644.88 30.12 645.34L30.12 658.58C30.14 670.8 37.86 681.84 49.33 686.05C49.46 686.09 49.58 686.11 49.72 686.11C49.85 686.11 49.98 686.09 50.1 686.05C61.57 681.83 69.29 670.8 69.31 658.58L69.31 645.34C69.31 644.88 69.04 644.47 68.62 644.31ZM67.09 658.58C67.07 669.69 60.09 679.82 49.73 683.81C39.36 679.82 32.37 669.69 32.35 658.58L32.35 646.1L49.73 639.15L67.09 646.1L67.09 658.58Z" fill="#EBF29D" fill-opacity="1.000000" fill-rule="nonzero" /><path id="Vector" d="M42 646.05C41.73 645.93 41.43 645.93 41.15 646.05L36.75 647.8C36.32 647.97 36.05 648.38 36.05 648.84L36.05 653.53C36.05 654.14 36.55 654.64 37.16 654.64C37.78 654.64 38.28 654.14 38.28 653.53L38.28 649.59L41.97 648.12C42.25 648 42.46 647.79 42.59 647.51C42.7 647.24 42.7 646.94 42.59 646.66C42.47 646.38 42.26 646.17 41.99 646.05L42 646.05Z" fill="#EBF29D" fill-opacity="1.000000" fill-rule="nonzero" /><path id="Vector" d="M77.88 633.3C70.37 625.77 60.36 621.64 49.73 621.64C39.09 621.64 29.1 625.78 21.57 633.3C6.05 648.81 6.05 674.08 21.57 689.61C29.34 697.37 39.53 701.24 49.73 701.24C59.93 701.24 70.12 697.36 77.88 689.61C93.4 674.09 93.4 648.82 77.88 633.3ZM72.38 658.58C72.41 672.7 63.38 685.06 49.93 689.34C49.8 689.38 49.66 689.38 49.53 689.34C36.07 685.06 27.05 672.7 27.08 658.58L27.08 642.95C27.08 642.69 27.23 642.45 27.48 642.35L49.49 633.56C49.56 633.52 49.64 633.51 49.73 633.51C49.81 633.51 49.89 633.52 49.97 633.56L71.97 642.36C72.22 642.45 72.38 642.69 72.38 642.96L72.38 658.59L72.38 658.58Z" fill="#EBF29D" fill-opacity="1.000000" fill-rule="nonzero" /><path id="Vector" d="M49.73 584.39C22.4 584.39 0.18 562.15 0.18 534.84C0.18 507.53 22.42 485.29 49.73 485.29C77.04 485.29 99.27 507.53 99.27 534.84C99.27 562.15 77.04 584.39 49.73 584.39ZM49.73 488.59C24.23 488.59 3.48 509.34 3.48 534.84C3.48 560.34 24.23 581.09 49.73 581.09C75.23 581.09 95.97 560.34 95.97 534.84C95.97 509.34 75.23 488.59 49.73 488.59Z" fill="#DA7DB5" fill-opacity="1.000000" fill-rule="nonzero" /><path id="Vector" d="M66.72 514.82L82.06 499.49L85.08 502.5L69.74 517.84L66.72 514.82Z" fill="#DA7DB5" fill-opacity="1.000000" fill-rule="evenodd" /><path id="Vector" d="M13.92 567.62L29.26 552.28L32.28 555.3L16.94 570.64L13.92 567.62Z" fill="#DA7DB5" fill-opacity="1.000000" fill-rule="evenodd" /><path id="Vector" d="M67.17 555.31L70.19 552.29L85.53 567.63L82.51 570.65L67.17 555.31Z" fill="#DA7DB5" fill-opacity="1.000000" fill-rule="evenodd" /><path id="Vector" d="M13.92 502.05L16.93 499.03L32.27 514.36L29.25 517.38L13.92 502.05Z" fill="#DA7DB5" fill-opacity="1.000000" fill-rule="evenodd" /><path id="Vector" d="M61.81 536.17C62.81 535.17 62.81 533.56 61.81 532.57L59.69 530.46C58.69 529.46 57.08 529.46 56.09 530.46L54.94 531.6L53.62 530.28C52.62 529.28 51.01 529.28 50.02 530.28L48.87 531.44L47.55 530.1C46.55 529.1 44.94 529.1 43.95 530.1L36.92 537.13C36.87 537.18 36.87 537.27 36.92 537.33C37.86 538.26 39.39 538.26 40.34 537.33L44.87 532.8C45.36 532.31 46.15 532.31 46.64 532.8L46.97 533.13C47.03 533.2 47.03 533.29 46.97 533.35L43.19 537.13C43.14 537.18 43.14 537.27 43.19 537.33C44.13 538.26 45.66 538.26 46.6 537.33L50.95 532.99C51.43 532.5 52.23 532.5 52.71 532.99L53.05 533.32C53.1 533.37 53.1 533.46 53.05 533.52L49.4 537.16C49.35 537.21 49.35 537.3 49.4 537.36C50.34 538.3 51.87 538.3 52.82 537.36L57.01 533.16C57.5 532.67 58.29 532.67 58.78 533.16L59.5 533.88C59.78 534.16 59.78 534.63 59.5 534.91L59.39 535.03C59.11 535.31 58.64 535.31 58.36 535.03L57.43 534.1C57.38 534.05 57.29 534.05 57.23 534.1L55.63 535.7C55.58 535.76 55.58 535.84 55.63 535.9L57.08 537.35C58.08 538.35 59.69 538.35 60.68 537.35L61.82 536.2L61.81 536.17Z" fill="#DA7DB5" fill-opacity="1.000000" fill-rule="nonzero" /><path id="Vector" d="M49.73 496.85C28.74 496.85 11.74 513.86 11.74 534.84C11.74 555.82 28.74 572.83 49.73 572.83C70.71 572.83 87.72 555.82 87.72 534.84C87.72 513.86 70.71 496.85 49.73 496.85ZM51.28 508.58C57.38 508.93 62.92 511.37 67.2 515.18L61.72 520.66C58.86 518.24 55.25 516.67 51.28 516.33L51.28 508.58ZM48.19 508.58L48.19 516.33C44.22 516.65 40.61 518.24 37.75 520.66L32.26 515.18C36.55 511.37 42.09 508.93 48.19 508.58ZM30.08 517.36L35.56 522.85C33.14 525.71 31.57 529.32 31.23 533.29L23.48 533.29C23.83 527.19 26.27 521.65 30.08 517.36ZM23.48 536.38L31.23 536.38C31.56 540.35 33.14 543.96 35.56 546.82L30.08 552.31C26.27 548.02 23.83 542.48 23.48 536.38ZM48.19 561.09C42.09 560.74 36.55 558.3 32.26 554.49L37.75 549.01C40.61 551.43 44.22 553 48.19 553.34L48.19 561.09ZM33.76 534.83C33.76 526.01 40.91 518.86 49.73 518.86C58.54 518.86 65.7 526.01 65.7 534.83C65.7 543.65 58.54 550.8 49.73 550.8C40.91 550.8 33.76 543.65 33.76 534.83ZM51.28 561.09L51.28 553.34C55.25 553.01 58.86 551.43 61.72 549.01L67.2 554.49C62.92 558.3 57.38 560.74 51.28 561.09ZM69.39 552.31L63.91 546.82C66.33 543.96 67.9 540.35 68.24 536.38L75.99 536.38C75.64 542.48 73.2 548.02 69.39 552.31ZM68.24 533.29C67.91 529.32 66.33 525.71 63.91 522.85L69.39 517.36C73.2 521.65 75.64 527.19 75.99 533.29L68.24 533.29Z" fill="#DA7DB5" fill-opacity="1.000000" fill-rule="nonzero" /><path id="Vector" d="M49.87 460.93C22.55 460.93 0.33 438.7 0.33 411.38C0.33 384.07 22.56 361.84 49.87 361.84C77.18 361.84 99.42 384.07 99.42 411.38C99.42 438.7 77.18 460.93 49.87 460.93ZM49.87 365.14C24.37 365.14 3.63 385.88 3.63 411.38C3.63 436.88 24.37 457.63 49.87 457.63C75.37 457.63 96.12 436.88 96.12 411.38C96.12 385.88 75.37 365.14 49.87 365.14Z" fill="#EBF29D" fill-opacity="1.000000" fill-rule="nonzero" /><path id="Vector" d="M65.95 380.45C65.7 380.45 65.45 380.4 65.22 380.28C60.42 377.91 55.26 376.7 49.88 376.7C44.49 376.7 39.33 377.91 34.53 380.28C33.9 380.59 33.14 380.47 32.64 379.97L24.12 371.46C23.76 371.09 23.59 370.59 23.66 370.08C23.72 369.57 24.01 369.12 24.45 368.86C32.12 364.26 40.91 361.84 49.89 361.84C58.86 361.84 67.65 364.27 75.32 368.86C75.76 369.12 76.05 369.57 76.12 370.08C76.18 370.59 76 371.09 75.65 371.46L67.13 379.97C66.81 380.28 66.39 380.45 65.96 380.45L65.95 380.45ZM49.88 373.4C55.36 373.4 60.65 374.55 65.6 376.81L71.76 370.64C65.06 367.03 57.54 365.14 49.88 365.14C42.21 365.14 34.69 367.03 27.99 370.64L34.15 376.81C39.1 374.55 44.39 373.4 49.88 373.4Z" fill="#EBF29D" fill-opacity="1.000000" fill-rule="nonzero" /><path id="Vector" d="M49.87 460.93C40.9 460.93 32.11 458.49 24.43 453.9C24 453.64 23.71 453.19 23.64 452.68C23.58 452.17 23.76 451.67 24.11 451.31L32.63 442.8C33.13 442.3 33.9 442.17 34.52 442.48C39.32 444.86 44.48 446.06 49.86 446.06C55.24 446.06 60.41 444.86 65.21 442.48C65.84 442.17 66.6 442.3 67.1 442.8L75.61 451.31C75.98 451.67 76.15 452.17 76.08 452.68C76.02 453.19 75.73 453.64 75.29 453.9C67.62 458.5 58.83 460.93 49.85 460.93L49.87 460.93ZM27.98 452.12C34.69 455.73 42.21 457.63 49.87 457.63C57.53 457.63 65.06 455.73 71.76 452.12L65.6 445.96C60.65 448.22 55.36 449.36 49.87 449.36C44.39 449.36 39.1 448.22 34.15 445.96L27.98 452.12Z" fill="#EBF29D" fill-opacity="1.000000" fill-rule="nonzero" /><path id="Vector" d="M90.98 437.62C90.54 437.62 90.12 437.46 89.81 437.14L81.3 428.63C80.8 428.13 80.67 427.36 80.99 426.74C83.36 421.94 84.57 416.77 84.57 411.39C84.57 406.01 83.36 400.85 80.99 396.05C80.67 395.42 80.8 394.65 81.3 394.16L89.81 385.64C90.18 385.28 90.68 385.11 91.19 385.17C91.7 385.24 92.14 385.53 92.4 385.96C97 393.64 99.43 402.43 99.43 411.4C99.43 420.38 97 429.17 92.4 436.84C92.14 437.28 91.7 437.57 91.19 437.63C91.11 437.63 91.05 437.63 90.98 437.63L90.98 437.62ZM84.45 427.11L90.61 433.27C94.23 426.57 96.12 419.04 96.12 411.38C96.12 403.72 94.23 396.2 90.61 389.49L84.45 395.66C86.71 400.61 87.86 405.9 87.86 411.38C87.86 416.87 86.71 422.16 84.45 427.11Z" fill="#EBF29D" fill-opacity="1.000000" fill-rule="nonzero" /><path id="Vector" d="M8.77 437.62C8.7 437.62 8.63 437.62 8.57 437.61C8.06 437.55 7.61 437.26 7.35 436.82C2.75 429.15 0.33 420.36 0.33 411.38C0.33 402.41 2.75 393.62 7.35 385.94C7.61 385.51 8.06 385.22 8.57 385.15C9.08 385.09 9.58 385.27 9.94 385.62L18.46 394.14C18.96 394.64 19.08 395.41 18.77 396.03C16.4 400.83 15.19 405.99 15.19 411.37C15.19 416.75 16.4 421.92 18.77 426.71C19.08 427.35 18.96 428.12 18.46 428.61L9.94 437.12C9.63 437.44 9.22 437.61 8.78 437.61L8.77 437.62ZM9.13 389.49C5.52 396.2 3.63 403.72 3.63 411.38C3.63 419.04 5.52 426.57 9.13 433.27L15.29 427.11C13.04 422.16 11.89 416.87 11.89 411.38C11.89 405.9 13.04 400.61 15.29 395.66L9.13 389.49Z" fill="#EBF29D" fill-opacity="1.000000" fill-rule="nonzero" /><path id="Vector" d="M49.87 373.39C28.93 373.39 11.88 390.43 11.88 411.38C11.88 432.34 28.92 449.37 49.87 449.37C70.83 449.37 87.86 432.34 87.86 411.38C87.86 390.43 70.83 373.39 49.87 373.39ZM71.25 398.9C73.05 401.98 74.15 405.35 74.5 408.92C74.51 409.06 74.45 409.2 74.32 409.27C71.61 410.94 69.17 412.98 67.07 415.36C66.97 415.47 66.82 415.52 66.68 415.46L61.99 413.93C61.85 413.89 61.76 413.78 61.74 413.63C61.21 409.75 60 406.03 58.15 402.58C58.09 402.45 58.1 402.31 58.18 402.19L61.08 398.2C61.16 398.1 61.27 398.04 61.39 398.04C61.42 398.04 61.44 398.04 61.47 398.04C64.57 398.73 67.76 398.96 70.92 398.69C71.07 398.68 71.2 398.76 71.27 398.88L71.25 398.9ZM59.18 414.29C59.19 414.39 59.16 414.5 59.1 414.57C56.63 417.41 53.48 419.69 50.02 421.15C49.93 421.19 49.83 421.19 49.74 421.15C46.27 419.68 43.13 417.4 40.66 414.57C40.6 414.5 40.57 414.39 40.58 414.29C41.06 410.52 42.23 406.92 44.05 403.59C44.11 403.49 44.19 403.43 44.29 403.41C46.13 403.02 48 402.83 49.88 402.83C51.77 402.83 53.64 403.02 55.47 403.41C55.58 403.43 55.66 403.49 55.71 403.59C57.53 406.92 58.7 410.52 59.19 414.29L59.18 414.29ZM58.62 388.45C58.62 388.45 58.74 388.35 58.87 388.35C58.91 388.35 58.96 388.35 59.01 388.38C62.84 389.9 66.27 392.4 68.93 395.59C69.07 395.75 69.01 395.92 68.98 395.98C68.96 396.03 68.87 396.2 68.65 396.2C66.29 396.23 63.94 395.96 61.66 395.42C61.56 395.4 61.48 395.33 61.43 395.25C60.21 393.24 59.23 391.08 58.52 388.83C58.46 388.63 58.57 388.49 58.63 388.45L58.62 388.45ZM44.62 387.2C48.06 386.46 51.69 386.46 55.14 387.2C55.28 387.24 55.39 387.34 55.42 387.47C56.16 390.57 57.36 393.52 58.97 396.26C59.04 396.38 59.03 396.54 58.95 396.67L56.07 400.64C55.98 400.76 55.84 400.82 55.7 400.79C51.89 400.02 47.86 400.02 44.05 400.79C43.92 400.82 43.77 400.76 43.69 400.64L40.81 396.67C40.72 396.55 40.71 396.38 40.79 396.26C42.4 393.52 43.6 390.57 44.34 387.47C44.37 387.34 44.48 387.24 44.62 387.2ZM30.83 395.59C33.49 392.39 36.91 389.89 40.74 388.38C40.8 388.36 40.85 388.35 40.89 388.35C41.03 388.35 41.11 388.42 41.14 388.45C41.19 388.5 41.31 388.63 41.24 388.83C40.54 391.09 39.56 393.24 38.34 395.25C38.29 395.33 38.21 395.4 38.11 395.42C35.83 395.96 33.48 396.23 31.12 396.2C30.9 396.2 30.8 396.03 30.78 395.98C30.75 395.92 30.7 395.75 30.84 395.59L30.83 395.59ZM28.5 398.9C28.57 398.79 28.69 398.72 28.83 398.72C28.83 398.72 28.85 398.72 28.86 398.72C32.03 398.97 35.22 398.75 38.31 398.06C38.45 398.03 38.6 398.08 38.68 398.21L41.59 402.2C41.67 402.32 41.68 402.47 41.62 402.59C39.77 406.04 38.56 409.76 38.03 413.64C38.01 413.78 37.91 413.89 37.78 413.94L33.08 415.47C32.95 415.52 32.79 415.47 32.7 415.37C30.6 412.99 28.16 410.95 25.44 409.28C25.33 409.21 25.26 409.07 25.27 408.93C25.62 405.36 26.71 401.98 28.51 398.91L28.5 398.9ZM29.64 424.55C29.58 424.75 29.4 424.79 29.33 424.8C29.25 424.8 29.09 424.8 28.97 424.63C26.76 421.15 25.44 417.11 25.18 412.97C25.17 412.76 25.31 412.65 25.37 412.62C25.43 412.59 25.6 412.52 25.77 412.64C27.69 414.01 29.44 415.61 30.97 417.39C31.03 417.46 31.06 417.56 31.05 417.66C30.87 420 30.39 422.32 29.63 424.56L29.64 424.55ZM39.92 434.05C36.67 432.63 33.81 430.53 31.42 427.85C31.33 427.75 31.29 427.59 31.35 427.46C32.56 424.53 33.33 421.44 33.64 418.27C33.65 418.13 33.75 418 33.89 417.96L38.53 416.45C38.53 416.45 38.6 416.43 38.64 416.43C38.75 416.43 38.84 416.47 38.91 416.56C41.52 419.47 44.77 421.84 48.34 423.42C48.48 423.48 48.56 423.6 48.56 423.75L48.56 428.63C48.56 428.78 48.48 428.91 48.34 428.96C45.43 430.22 42.72 431.92 40.3 433.99C40.19 434.08 40.04 434.11 39.91 434.04L39.92 434.05ZM56.3 435.08C56.28 435.16 56.23 435.32 56.02 435.37C52.01 436.39 47.76 436.39 43.74 435.37C43.54 435.32 43.48 435.16 43.47 435.08C43.46 435.01 43.44 434.84 43.62 434.71C45.51 433.3 47.57 432.13 49.75 431.22C49.84 431.18 49.94 431.18 50.03 431.22C52.19 432.13 54.26 433.3 56.16 434.71C56.33 434.83 56.32 435.01 56.31 435.08L56.3 435.08ZM68.36 427.86C65.96 430.55 63.1 432.63 59.86 434.05C59.72 434.12 59.57 434.08 59.47 434C57.04 431.93 54.35 430.23 51.42 428.97C51.29 428.91 51.21 428.79 51.21 428.64L51.21 423.76C51.21 423.61 51.29 423.48 51.42 423.43C54.99 421.85 58.26 419.48 60.85 416.57C60.93 416.48 61.02 416.44 61.12 416.44C61.17 416.44 61.2 416.44 61.24 416.46L65.88 417.97C66.02 418.01 66.12 418.14 66.13 418.28C66.43 421.45 67.2 424.53 68.42 427.47C68.47 427.6 68.45 427.76 68.35 427.86L68.36 427.86ZM70.79 424.64C70.68 424.82 70.5 424.82 70.44 424.81C70.37 424.81 70.2 424.76 70.13 424.56C69.38 422.32 68.9 420 68.7 417.66C68.7 417.57 68.72 417.46 68.79 417.39C70.32 415.61 72.06 414.02 73.99 412.64C74.06 412.59 74.14 412.57 74.2 412.57C74.28 412.57 74.34 412.6 74.39 412.62C74.45 412.65 74.59 412.76 74.57 412.97C74.31 417.11 73 421.15 70.78 424.63L70.79 424.64Z" fill="#EBF29D" fill-opacity="1.000000" fill-rule="nonzero" /><path id="Vector" d="M99.11 289.06C99.11 316.38 76.87 338.62 49.55 338.62C22.23 338.62 0 316.38 0 289.06C0 261.74 22.23 239.51 49.55 239.51C76.87 239.51 99.11 261.74 99.11 289.06ZM3.57 289.06C3.57 314.42 24.2 335.05 49.55 335.05C74.91 335.05 95.54 314.42 95.54 289.06C95.54 263.71 74.91 243.08 49.55 243.08C24.2 243.08 3.57 263.71 3.57 289.06Z" fill="#11F8A5" fill-opacity="1.000000" fill-rule="nonzero" /><path id="Vector" d="M99.11 167.92C99.11 168.91 98.31 169.7 97.33 169.7C96.35 169.7 95.55 168.9 95.55 167.92C95.55 142.57 74.92 121.94 49.56 121.94C24.21 121.94 3.58 142.57 3.58 167.92C3.58 168.91 2.78 169.7 1.8 169.7C0.82 169.7 0.02 168.9 0.02 167.92C0.02 140.6 22.25 118.37 49.57 118.37C76.9 118.37 99.13 140.6 99.13 167.92L99.11 167.92Z" fill="#11F8A5" fill-opacity="1.000000" fill-rule="nonzero" /><path id="Vector" d="M40.01 280.31C40.01 282.13 41.25 283.71 43.02 284.15L46.38 284.99L46.38 276.34L43.98 276.34C41.8 276.34 40.02 278.12 40.02 280.31L40.01 280.31Z" fill="#11F8A5" fill-opacity="1.000000" fill-rule="nonzero" /><path id="Vector" d="M52.72 301.78L55.12 301.78C57.3 301.78 59.08 300 59.08 297.81C59.08 295.99 57.85 294.41 56.08 293.97L52.71 293.13L52.71 301.78L52.72 301.78Z" fill="#11F8A5" fill-opacity="1.000000" fill-rule="nonzero" /><path id="Vector" d="M49.55 248.74C27.32 248.74 9.22 266.83 9.22 289.07C9.22 311.31 27.31 329.4 49.55 329.4C71.79 329.4 89.88 311.31 89.88 289.07C89.88 266.83 71.79 248.74 49.55 248.74ZM65.46 282.7L59.1 282.7L59.1 279.52C59.1 277.77 57.67 276.33 55.91 276.33L52.73 276.33L52.73 286.57L57.63 287.8C62.23 288.96 65.45 293.07 65.45 297.81C65.45 303.51 60.81 308.14 55.12 308.14L52.73 308.14L52.73 316.2L46.37 316.2L46.37 308.14L43.18 308.14C37.91 308.14 33.64 303.86 33.64 298.6L33.64 295.41L40 295.41L40 298.6C40 300.34 41.42 301.78 43.18 301.78L46.37 301.78L46.37 291.54L41.46 290.31C36.86 289.15 33.65 285.04 33.65 280.3C33.65 274.6 38.28 269.97 43.97 269.97L46.37 269.97L46.37 261.91L52.73 261.91L52.73 269.97L55.91 269.97C61.18 269.97 65.46 274.25 65.46 279.52L65.46 282.7Z" fill="#11F8A5" fill-opacity="1.000000" fill-rule="nonzero" /><path id="Vector" d="" fill="#11F8A5" fill-opacity="1.000000" fill-rule="nonzero" /><path id="Vector" d="M99.17 167.16L99.17 286.76C99.17 287.75 98.37 288.54 97.39 288.54C96.41 288.54 95.61 287.74 95.61 286.76L95.61 167.16C95.61 166.18 96.41 165.39 97.39 165.39C98.37 165.39 99.17 166.19 99.17 167.16Z" fill="#11F8A5" fill-opacity="1.000000" fill-rule="nonzero" /><path id="Vector" d="" fill="#11F8A5" fill-opacity="1.000000" fill-rule="nonzero" /><path id="Vector" d="M3.63 166.9L3.63 286.5C3.63 287.49 2.83 288.28 1.85 288.28C0.87 288.28 0.07 287.48 0.07 286.5L0.07 166.9C0.07 165.92 0.87 165.12 1.85 165.12C2.83 165.12 3.63 165.93 3.63 166.9Z" fill="#11F8A5" fill-opacity="1.000000" fill-rule="nonzero" /><path id="Vector" d="M49.73 99.12C37.03 99.12 24.34 94.29 14.67 84.62C-4.66 65.29 -4.66 33.84 14.67 14.52C24.04 5.15 36.49 0 49.73 0C62.97 0 75.42 5.15 84.78 14.52C104.11 33.84 104.11 65.29 84.78 84.62C75.12 94.28 62.43 99.12 49.73 99.12ZM17.27 82.02C35.17 99.91 64.28 99.91 82.17 82.02C100.06 64.12 100.06 35.01 82.17 17.12C73.5 8.45 61.98 3.68 49.72 3.68C37.46 3.68 25.93 8.46 17.26 17.12C-0.63 35.01 -0.63 64.12 17.26 82.02L17.27 82.02Z" fill="#EBF29D" fill-opacity="1.000000" fill-rule="nonzero" /><path id="Vector" d="M49.07 68.11C49.25 68.54 49.67 68.79 50.1 68.79C50.25 68.79 50.39 68.75 50.54 68.7C54.04 67.23 57.22 64.97 59.74 62.13C60.15 61.68 60.11 60.97 59.65 60.56C59.19 60.16 58.48 60.2 58.08 60.66C55.78 63.25 52.87 65.32 49.68 66.65C49.11 66.89 48.84 67.55 49.08 68.11L49.07 68.11Z" fill="#EBF29D" fill-opacity="1.000000" fill-rule="nonzero" /><path id="Vector" d="M68.62 32.43L50.13 25.04C49.86 24.93 49.57 24.93 49.3 25.04L30.81 32.43C30.39 32.59 30.12 33 30.12 33.46L30.12 46.7C30.14 58.92 37.86 69.96 49.33 74.17C49.46 74.21 49.58 74.23 49.72 74.23C49.85 74.23 49.98 74.21 50.1 74.17C61.57 69.95 69.29 58.92 69.31 46.7L69.31 33.46C69.31 33 69.04 32.59 68.62 32.43ZM67.09 46.7C67.07 57.81 60.09 67.94 49.73 71.93C39.36 67.94 32.37 57.81 32.35 46.7L32.35 34.22L49.73 27.28L67.09 34.22L67.09 46.7Z" fill="#EBF29D" fill-opacity="1.000000" fill-rule="nonzero" /><path id="Vector" d="M42 34.17C41.73 34.05 41.43 34.05 41.15 34.17L36.75 35.93C36.32 36.09 36.05 36.5 36.05 36.96L36.05 41.65C36.05 42.26 36.55 42.76 37.16 42.76C37.78 42.76 38.28 42.26 38.28 41.65L38.28 37.72L41.97 36.24C42.25 36.12 42.46 35.92 42.59 35.63C42.7 35.36 42.7 35.06 42.59 34.78C42.47 34.5 42.26 34.29 41.99 34.17L42 34.17Z" fill="#EBF29D" fill-opacity="1.000000" fill-rule="nonzero" /><path id="Vector" d="M77.88 21.42C70.37 13.89 60.36 9.76 49.73 9.76C39.09 9.76 29.1 13.9 21.57 21.42C6.05 36.94 6.05 62.2 21.57 77.73C29.34 85.49 39.53 89.36 49.73 89.36C59.93 89.36 70.12 85.48 77.88 77.73C93.4 62.21 93.4 36.95 77.88 21.42ZM72.38 46.7C72.41 60.82 63.38 73.18 49.93 77.46C49.8 77.5 49.66 77.5 49.53 77.46C36.07 73.18 27.05 60.82 27.08 46.7L27.08 31.08C27.08 30.82 27.23 30.58 27.48 30.47L49.49 21.68C49.56 21.65 49.64 21.63 49.73 21.63C49.81 21.63 49.89 21.65 49.97 21.68L71.97 30.48C72.22 30.58 72.38 30.82 72.38 31.09L72.38 46.71L72.38 46.7Z" fill="#EBF29D" fill-opacity="1.000000" fill-rule="nonzero" /></g></g></svg>