<svg width="32.000000" height="32.000000" viewBox="0 0 32 32" fill="none" xmlns="http://www.w3.org/2000/svg" xmlns:xlink="http://www.w3.org/1999/xlink">
	<desc>
			Created with Pixso.
	</desc>
	<defs>
		<clipPath id="clip4_568">
			<rect id="VK" width="16.000000" height="16.000000" transform="translate(8.000000 8.000000)" fill="white" fill-opacity="0"/>
		</clipPath>
		<clipPath id="clip4_569">
			<rect id="Buttons - Socials" width="32.000000" height="32.000000" fill="white" fill-opacity="0"/>
		</clipPath>
	</defs>
	<g clip-path="url(#clip4_569)">
		<path id="Union" d="M16 32C7.17651 32 0 24.8201 0 16C0 7.17993 7.17993 0 16 0C24.8201 0 32 7.17993 32 16C32 24.8201 24.8201 32 16 32ZM4.96753 5.94385C2.54468 8.59961 1.06543 12.1301 1.06543 16C1.06543 19.8694 2.54443 23.3997 4.9668 26.0554L6.1543 24.8679C4.03809 22.5195 2.75 19.4104 2.75 16C2.75 12.5894 4.03833 9.47974 6.15503 7.13159L4.96753 5.94385ZM5.94189 4.96948L7.12939 6.15698C9.47803 4.03906 12.5884 2.75 16 2.75C19.4106 2.75 22.52 4.03833 24.8682 6.15479L26.0557 4.96704C23.4001 2.54468 19.8696 1.06543 16 1.06543C12.1292 1.06543 8.5979 2.54541 5.94189 4.96948ZM30.9346 16C30.9346 19.8713 29.4541 23.4033 27.0295 26.0593L25.842 24.8718C27.9604 22.5232 29.25 19.4124 29.25 16C29.25 12.5881 27.9607 9.47754 25.8428 7.12915L27.0303 5.94165C29.4543 8.59741 30.9346 12.1292 30.9346 16ZM7.12866 25.8425L5.94116 27.03C8.59717 29.4541 12.1289 30.9343 16 30.9343C19.8691 30.9343 23.3992 29.4558 26.0547 27.0337L24.8672 25.8462C22.519 27.9622 19.4102 29.25 16 29.25C12.5879 29.25 9.47729 27.9607 7.12866 25.8425Z" clip-rule="evenodd" fill="#F97247" fill-opacity="1.000000" fill-rule="evenodd"/>
		<g clip-path="url(#clip4_568)">
			<path id="Vector" d="M9.57 12.39C9.46 12.39 9.37 12.45 9.31 12.54C9.25 12.62 9.23 12.74 9.26 12.84C9.27 12.88 9.29 12.92 9.3 12.96C9.7 14.26 10.33 16.32 11.47 17.99C12.66 19.73 14.41 21.09 17.03 20.74C17.19 20.72 17.31 20.57 17.31 20.4L17.31 18.57C17.74 18.71 18.06 18.97 18.36 19.29C18.51 19.45 18.66 19.63 18.81 19.81C18.85 19.86 18.89 19.91 18.93 19.95C19.12 20.19 19.34 20.43 19.58 20.66C19.64 20.71 19.71 20.74 19.79 20.74L22.12 20.74C22.23 20.74 22.33 20.68 22.39 20.59C22.45 20.49 22.46 20.37 22.42 20.26C21.86 18.94 21.04 17.75 20.01 16.79C20.04 16.74 20.07 16.7 20.1 16.66C20.86 15.58 21.65 14.45 22.05 12.82C22.08 12.72 22.06 12.61 22 12.53C21.93 12.44 21.84 12.39 21.74 12.39L19.62 12.39C19.51 12.39 19.41 12.45 19.35 12.55C19.14 12.89 18.95 13.25 18.77 13.6C18.73 13.67 18.7 13.74 18.66 13.81C18.52 14.09 18.38 14.36 18.23 14.63C17.97 15.1 17.68 15.54 17.31 15.92L17.31 12.74C17.31 12.55 17.17 12.39 16.99 12.39L13.91 12.39C13.79 12.39 13.68 12.47 13.62 12.59C13.57 12.71 13.58 12.85 13.66 12.95L14.33 13.82L14.33 16.64C14.23 16.58 14.14 16.5 14.05 16.4C13.82 16.16 13.6 15.83 13.37 15.42C13.06 14.85 12.76 14.18 12.46 13.48C12.33 13.19 12.2 12.89 12.07 12.59C12.02 12.47 11.9 12.39 11.78 12.39L9.57 12.39Z" fill="#191D0A" fill-opacity="1.000000" fill-rule="evenodd"/>
		</g>
	</g>
</svg>
